mtllib model_4.mtl
o model_4
v -875.81201171875 95.967041015625 573.5874633789062 
v -875.81201171875 359.58221435546875 573.58740234375 
v -875.81201171875 95.9670639038086 749.7650146484375 
v -875.81201171875 359.5822448730469 749.7650146484375 
v -875.81201171875 95.96698760986328 265.2766418457031 
v -875.81201171875 359.5821533203125 265.2765808105469 
v -875.81201171875 95.9670181274414 441.4542236328125 
v -875.81201171875 359.5821838378906 441.4541931152344 
v -875.81201171875 95.96693420410156 -43.0341796875 
v -875.81201171875 359.58209228515625 -43.03422164916992 
v -875.81201171875 95.96696472167969 144.15452575683594 
v -875.81201171875 359.5821228027344 144.15447998046875 
v -875.81201171875 95.96688842773438 -340.3338623046875 
v -875.81201171875 359.5820617675781 -340.3338928222656 
v -875.81201171875 95.9669189453125 -164.15625 
v -875.81201171875 359.58209228515625 -164.1562957763672 
v -875.81201171875 95.96683502197266 -648.6446533203125 
v -875.81201171875 359.5820007324219 -648.6447143554688 
v -875.81201171875 95.96686553955078 -472.467041015625 
v -875.81201171875 359.58203125 -472.46710205078125 
v 559.0339965820312 359.5822448730469 749.7650146484375 
v 559.0339965820312 359.58221435546875 573.58740234375 
v 559.0339965820312 95.9670639038086 749.7650146484375 
v 559.0339965820312 95.967041015625 573.5874633789062 
v 559.0339965820312 359.5821838378906 441.4541931152344 
v 559.0339965820312 359.5821533203125 265.2765808105469 
v 559.0339965820312 95.9670181274414 441.4542236328125 
v 559.0339965820312 95.96698760986328 265.2766418457031 
v 559.0339965820312 359.5821228027344 144.15447998046875 
v 559.0339965820312 359.58209228515625 -43.03422164916992 
v 559.0339965820312 95.96696472167969 144.15452575683594 
v 559.0339965820312 95.96693420410156 -43.0341796875 
v 559.0339965820312 359.58209228515625 -164.1562957763672 
v 559.0339965820312 359.5820617675781 -340.3338928222656 
v 559.0339965820312 95.9669189453125 -164.15625 
v 559.0339965820312 95.96688842773438 -340.3338623046875 
v 559.0339965820312 359.58203125 -472.46710205078125 
v 559.0339965820312 359.5820007324219 -648.6447143554688 
v 559.0339965820312 95.96686553955078 -472.467041015625 
v 559.0339965820312 95.96683502197266 -648.6446533203125 
v -566.3873901367188 138.36253356933594 109.85320281982422 
v -579.093017578125 137.88584899902344 112.43882751464844 
v -566.353515625 137.88584899902344 109.87030029296875 
v -566.353515625 125.8952865600586 109.87030029296875 
v -551.3025512695312 125.8952865600586 108.83750915527344 
v -551.3025512695312 113.90471649169922 108.83750915527344 
v -566.353515625 113.90471649169922 109.87030029296875 
v -579.093017578125 125.8952865600586 112.43883514404297 
v -585.3040771484375 137.88584899902344 114.27210235595703 
v -579.1268920898438 138.36253356933594 112.42674255371094 
v -585.7407836914062 138.36253356933594 114.38292694091797 
v -585.3040771484375 125.8952865600586 114.27210235595703 
v -585.7407836914062 126.02362823486328 114.38292694091797 
v -585.3040771484375 113.86804962158203 114.27210998535156 
v -585.7407836914062 113.64804077148438 114.38292694091797 
v -585.3040771484375 101.36412811279297 114.27210998535156 
v -585.7407836914062 100.83243560791016 114.38292694091797 
v -579.093017578125 101.91415405273438 112.43883514404297 
v -579.093017578125 113.90471649169922 112.43883514404297 
v -566.353515625 101.91415405273438 109.87030029296875 
v -551.3025512695312 101.91415405273438 108.83750915527344 
v -566.3873901367188 101.36412811279297 109.85320281982422 
v -579.1268920898438 101.36412811279297 112.42674255371094 
v -536.1961059570312 101.91415405273438 109.4947280883789 
v -551.3028564453125 101.36412811279297 108.81246948242188 
v -536.230224609375 101.36412811279297 109.4651107788086 
v -523.3945922851562 101.91415405273438 111.7420883178711 
v -523.4287109375 101.36412811279297 111.7099609375 
v -517.172119140625 101.91415405273438 113.41785430908203 
v -516.7666625976562 101.36412811279297 113.49529266357422 
v -517.172119140625 113.90471649169922 113.41785430908203 
v -516.7666625976562 113.70304107666016 113.49529266357422 
v -523.3945922851562 113.90471649169922 111.74208068847656 
v -536.1961059570312 113.90471649169922 109.4947280883789 
v -536.1961059570312 125.8952865600586 109.4947280883789 
v -523.3945922851562 125.8952865600586 111.74208068847656 
v -517.172119140625 125.8952865600586 113.41785430908203 
v -516.7666625976562 126.02362823486328 113.49529266357422 
v -517.172119140625 137.88584899902344 113.41785430908203 
v -516.7666625976562 138.36253356933594 113.49529266357422 
v -523.3945922851562 137.88584899902344 111.74208068847656 
v -523.4287109375 138.36253356933594 111.7099609375 
v -536.1961059570312 137.88584899902344 109.4947280883789 
v -536.230224609375 138.36253356933594 109.46510314941406 
v -551.3025512695312 137.88584899902344 108.83750915527344 
v -551.3028564453125 138.36253356933594 108.81246185302734 
v -787.2194213867188 138.36253356933594 110.41920471191406 
v -799.925048828125 137.88584899902344 113.00482940673828 
v -787.1854858398438 137.88584899902344 110.4363021850586 
v -787.1854858398438 125.8952865600586 110.4363021850586 
v -772.134521484375 125.8952865600586 109.40351104736328 
v -772.134521484375 113.90471649169922 109.40351104736328 
v -787.1854858398438 113.90471649169922 110.4363021850586 
v -799.925048828125 125.8952865600586 113.00482940673828 
v -806.1361083984375 137.88584899902344 114.83810424804688 
v -799.9589233398438 138.36253356933594 112.99274444580078 
v -806.57275390625 138.36253356933594 114.94892883300781 
v -806.1361083984375 125.8952865600586 114.83810424804688 
v -806.57275390625 126.02362823486328 114.94892883300781 
v -806.1361083984375 113.86804962158203 114.83810424804688 
v -806.57275390625 113.64804077148438 114.94892883300781 
v -806.1361083984375 101.36412811279297 114.83810424804688 
v -806.57275390625 100.83243560791016 114.94892883300781 
v -799.925048828125 101.91415405273438 113.00483703613281 
v -799.925048828125 113.90471649169922 113.00482940673828 
v -787.1854858398438 101.91415405273438 110.4363021850586 
v -772.134521484375 101.91415405273438 109.40351104736328 
v -787.2194213867188 101.36412811279297 110.41920471191406 
v -799.9589233398438 101.36412811279297 112.99274444580078 
v -757.0281372070312 101.91415405273438 110.06072998046875 
v -772.1348876953125 101.36412811279297 109.37846374511719 
v -757.0621948242188 101.36412811279297 110.03111267089844 
v -744.2266235351562 101.91415405273438 112.3080825805664 
v -744.2607421875 101.36412811279297 112.27596282958984 
v -738.0040893554688 101.91415405273438 113.98385620117188 
v -737.5986938476562 101.36412811279297 114.06129455566406 
v -738.0040893554688 113.90471649169922 113.98385620117188 
v -737.5986938476562 113.70304107666016 114.06129455566406 
v -744.2266235351562 113.90471649169922 112.3080825805664 
v -757.0281372070312 113.90471649169922 110.06072998046875 
v -757.0281372070312 125.8952865600586 110.06072998046875 
v -744.2266235351562 125.8952865600586 112.3080825805664 
v -738.0040893554688 125.8952865600586 113.98385620117188 
v -737.5986938476562 126.02362823486328 114.06129455566406 
v -738.0040893554688 137.88584899902344 113.98385620117188 
v -737.5986938476562 138.36253356933594 114.06129455566406 
v -744.2266235351562 137.88584899902344 112.3080825805664 
v -744.2607421875 138.36253356933594 112.27595520019531 
v -757.0281372070312 137.88584899902344 110.06072235107422 
v -757.0621948242188 138.36253356933594 110.0311050415039 
v -772.134521484375 137.88584899902344 109.40350341796875 
v -772.1348876953125 138.36253356933594 109.37846374511719 
v -483.4975891113281 138.36253356933594 58.4329948425293 
v -470.7919616699219 137.88584899902344 55.84737014770508 
v -483.531494140625 137.88584899902344 58.41590118408203 
v -483.531494140625 125.8952865600586 58.41590118408203 
v -498.58245849609375 125.8952865600586 59.448692321777344 
v -498.58245849609375 113.90471649169922 59.448692321777344 
v -483.531494140625 113.90471649169922 58.41590118408203 
v -470.7919616699219 125.8952865600586 55.84737014770508 
v -464.5809020996094 137.88584899902344 54.014095306396484 
v -470.75811767578125 138.36253356933594 55.859458923339844 
v -464.14422607421875 138.36253356933594 53.90327453613281 
v -464.5809020996094 125.8952865600586 54.014095306396484 
v -464.14422607421875 126.02362823486328 53.90327453613281 
v -464.5809020996094 113.86804962158203 54.014095306396484 
v -464.14422607421875 113.64804077148438 53.90327453613281 
v -464.5809020996094 101.36412811279297 54.014095306396484 
v -464.14422607421875 100.83243560791016 53.90327835083008 
v -470.7919616699219 101.91415405273438 55.84737014770508 
v -470.7919616699219 113.90471649169922 55.84737014770508 
v -483.531494140625 101.91415405273438 58.41590118408203 
v -498.58245849609375 101.91415405273438 59.448692321777344 
v -483.4975891113281 101.36412811279297 58.43299865722656 
v -470.75811767578125 101.36412811279297 55.859458923339844 
v -513.6889038085938 101.91415405273438 58.79146957397461 
v -498.5821533203125 101.36412811279297 59.47373580932617 
v -513.65478515625 101.36412811279297 58.82109069824219 
v -526.4904174804688 101.91415405273438 56.54411315917969 
v -526.456298828125 101.36412811279297 56.576236724853516 
v -532.712890625 101.91415405273438 54.868343353271484 
v -533.1182861328125 101.36412811279297 54.79090118408203 
v -532.712890625 113.90471649169922 54.868343353271484 
v -533.1182861328125 113.70304107666016 54.79090118408203 
v -526.4904174804688 113.90471649169922 56.54411315917969 
v -513.6889038085938 113.90471649169922 58.79146957397461 
v -513.6889038085938 125.8952865600586 58.79146957397461 
v -526.4904174804688 125.8952865600586 56.54411315917969 
v -532.712890625 125.8952865600586 54.868343353271484 
v -533.1182861328125 126.02362823486328 54.79090118408203 
v -532.712890625 137.88584899902344 54.86833953857422 
v -533.1182861328125 138.36253356933594 54.79090118408203 
v -526.4904174804688 137.88584899902344 56.54411315917969 
v -526.456298828125 138.36253356933594 56.576236724853516 
v -513.6889038085938 137.88584899902344 58.79146957397461 
v -513.65478515625 138.36253356933594 58.82108688354492 
v -498.58245849609375 137.88584899902344 59.44868850708008 
v -498.5821533203125 138.36253356933594 59.473731994628906 
v -701.8895874023438 138.36253356933594 -454.4352111816406 
v -689.1839599609375 137.88584899902344 -457.0208435058594 
v -701.9235229492188 137.88584899902344 -454.4523010253906 
v -701.9235229492188 125.8952865600586 -454.4523010253906 
v -716.9744873046875 125.8952865600586 -453.41949462890625 
v -716.9744873046875 113.90471649169922 -453.41949462890625 
v -701.9235229492188 113.90471649169922 -454.4523010253906 
v -689.1839599609375 125.8952865600586 -457.0208435058594 
v -682.972900390625 137.88584899902344 -458.8540954589844 
v -689.1500854492188 138.36253356933594 -457.00872802734375 
v -682.5362548828125 138.36253356933594 -458.9649353027344 
v -682.972900390625 125.8952865600586 -458.8540954589844 
v -682.5362548828125 126.02362823486328 -458.9649353027344 
v -682.972900390625 113.86804962158203 -458.8540954589844 
v -682.5362548828125 113.64804077148438 -458.9649353027344 
v -682.972900390625 101.36412811279297 -458.8540954589844 
v -682.5362548828125 100.83243560791016 -458.9649353027344 
v -689.1839599609375 101.91415405273438 -457.0208435058594 
v -689.1839599609375 113.90471649169922 -457.0208435058594 
v -701.9235229492188 101.91415405273438 -454.4523010253906 
v -716.9744873046875 101.91415405273438 -453.41949462890625 
v -701.8895874023438 101.36412811279297 -454.4352111816406 
v -689.1500854492188 101.36412811279297 -457.00872802734375 
v -732.0808715820312 101.91415405273438 -454.07672119140625 
v -716.97412109375 101.36412811279297 -453.39447021484375 
v -732.0468139648438 101.36412811279297 -454.047119140625 
v -744.8823852539062 101.91415405273438 -456.3240966796875 
v -744.8482666015625 101.36412811279297 -456.2919616699219 
v -751.1049194335938 101.91415405273438 -457.9998474121094 
v -751.5103149414062 101.36412811279297 -458.0773010253906 
v -751.1049194335938 113.90471649169922 -457.9998474121094 
v -751.5103149414062 113.70304107666016 -458.0773010253906 
v -744.8823852539062 113.90471649169922 -456.3240966796875 
v -732.0808715820312 113.90471649169922 -454.07672119140625 
v -732.0808715820312 125.8952865600586 -454.07672119140625 
v -744.8823852539062 125.8952865600586 -456.3240966796875 
v -751.1049194335938 125.8952865600586 -457.9998474121094 
v -751.5103149414062 126.02362823486328 -458.0773010253906 
v -751.1049194335938 137.88584899902344 -457.9998474121094 
v -751.5103149414062 138.36253356933594 -458.0773010253906 
v -744.8823852539062 137.88584899902344 -456.3240966796875 
v -744.8482666015625 138.36253356933594 -456.2919616699219 
v -732.0808715820312 137.88584899902344 -454.07672119140625 
v -732.0468139648438 138.36253356933594 -454.047119140625 
v -716.9744873046875 137.88584899902344 -453.41949462890625 
v -716.97412109375 138.36253356933594 -453.39447021484375 
v -704.1596069335938 138.36253356933594 590.6517944335938 
v -691.4539794921875 137.88584899902344 588.066162109375 
v -704.1934814453125 137.88584899902344 590.6347045898438 
v -704.1934814453125 125.8952865600586 590.6347045898438 
v -719.2444458007812 125.8952865600586 591.66748046875 
v -719.2444458007812 113.90471649169922 591.66748046875 
v -704.1934814453125 113.90471649169922 590.6347045898438 
v -691.4539794921875 125.8952865600586 588.066162109375 
v -685.242919921875 137.88584899902344 586.23291015625 
v -691.4201049804688 138.36253356933594 588.0782470703125 
v -684.8062133789062 138.36253356933594 586.1220703125 
v -685.242919921875 125.8952865600586 586.23291015625 
v -684.8062133789062 126.02362823486328 586.1220703125 
v -685.242919921875 113.86804962158203 586.23291015625 
v -684.8062133789062 113.64804077148438 586.1220703125 
v -685.242919921875 101.36412811279297 586.23291015625 
v -684.8062133789062 100.83243560791016 586.1220703125 
v -691.4539794921875 101.91415405273438 588.066162109375 
v -691.4539794921875 113.90471649169922 588.066162109375 
v -704.1934814453125 101.91415405273438 590.6347045898438 
v -719.2444458007812 101.91415405273438 591.66748046875 
v -704.1596069335938 101.36412811279297 590.6517944335938 
v -691.4201049804688 101.36412811279297 588.0782470703125 
v -734.3508911132812 101.91415405273438 591.01025390625 
v -719.244140625 101.36412811279297 591.6925048828125 
v -734.3167724609375 101.36412811279297 591.0399169921875 
v -747.1524047851562 101.91415405273438 588.762939453125 
v -747.1182861328125 101.36412811279297 588.7950439453125 
v -753.3748779296875 101.91415405273438 587.087158203125 
v -753.7803344726562 101.36412811279297 587.0097045898438 
v -753.3748779296875 113.90471649169922 587.087158203125 
v -753.7803344726562 113.70304107666016 587.0097045898438 
v -747.1524047851562 113.90471649169922 588.762939453125 
v -734.3508911132812 113.90471649169922 591.01025390625 
v -734.3508911132812 125.8952865600586 591.01025390625 
v -747.1524047851562 125.8952865600586 588.762939453125 
v -753.3748779296875 125.8952865600586 587.087158203125 
v -753.7803344726562 126.02362823486328 587.0097045898438 
v -753.3748779296875 137.88584899902344 587.087158203125 
v -753.7803344726562 138.36253356933594 587.0097045898438 
v -747.1524047851562 137.88584899902344 588.762939453125 
v -747.1182861328125 138.36253356933594 588.7950439453125 
v -734.3508911132812 137.88584899902344 591.01025390625 
v -734.3167724609375 138.36253356933594 591.0399169921875 
v -719.2444458007812 137.88584899902344 591.66748046875 
v -719.244140625 138.36253356933594 591.6925048828125 
v -567.6574096679688 138.36253356933594 637.80517578125 
v -580.363037109375 137.88584899902344 640.3908081054688 
v -567.6234741210938 137.88584899902344 637.822265625 
v -567.6234741210938 125.8952865600586 637.822265625 
v -552.572509765625 125.8952865600586 636.7894897460938 
v -552.572509765625 113.90471649169922 636.7894897460938 
v -567.6234741210938 113.90471649169922 637.822265625 
v -580.363037109375 125.8952865600586 640.3908081054688 
v -586.5740966796875 137.88584899902344 642.2240600585938 
v -580.3969116210938 138.36253356933594 640.3787231445312 
v -587.0108032226562 138.36253356933594 642.3348999023438 
v -586.5740966796875 125.8952865600586 642.2240600585938 
v -587.0108032226562 126.02362823486328 642.3348999023438 
v -586.5740966796875 113.86804962158203 642.2240600585938 
v -587.0108032226562 113.64804077148438 642.3348999023438 
v -586.5740966796875 101.36412811279297 642.22412109375 
v -587.0108032226562 100.83243560791016 642.3348999023438 
v -580.363037109375 101.91415405273438 640.3908081054688 
v -580.363037109375 113.90471649169922 640.3908081054688 
v -567.6234741210938 101.91415405273438 637.822265625 
v -552.572509765625 101.91415405273438 636.7894897460938 
v -567.6574096679688 101.36412811279297 637.80517578125 
v -580.3969116210938 101.36412811279297 640.3787231445312 
v -537.4661254882812 101.91415405273438 637.4467163085938 
v -552.5728759765625 101.36412811279297 636.7644653320312 
v -537.5001831054688 101.36412811279297 637.4171142578125 
v -524.6646118164062 101.91415405273438 639.694091796875 
v -524.69873046875 101.36412811279297 639.6619873046875 
v -518.4420776367188 101.91415405273438 641.369873046875 
v -518.0366821289062 101.36412811279297 641.4473266601562 
v -518.4420776367188 113.90471649169922 641.369873046875 
v -518.0366821289062 113.70304107666016 641.4473266601562 
v -524.6646118164062 113.90471649169922 639.694091796875 
v -537.4661254882812 113.90471649169922 637.4467163085938 
v -537.4661254882812 125.8952865600586 637.4467163085938 
v -524.6646118164062 125.8952865600586 639.694091796875 
v -518.4420776367188 125.8952865600586 641.369873046875 
v -518.0366821289062 126.02362823486328 641.4473266601562 
v -518.4420776367188 137.88584899902344 641.369873046875 
v -518.0366821289062 138.36253356933594 641.4473266601562 
v -524.6646118164062 137.88584899902344 639.694091796875 
v -524.69873046875 138.36253356933594 639.6619873046875 
v -537.4661254882812 137.88584899902344 637.4467163085938 
v -537.5001831054688 138.36253356933594 637.4171142578125 
v -552.572509765625 137.88584899902344 636.7894897460938 
v -552.5728759765625 138.36253356933594 636.7644653320312 
vn 0.009999976493418217 0.00002184694130846765 -3.5593255773291865e-12 
vn 0.009999976493418217 0.00002184694130846765 -3.5593255773291865e-12 
vn 0.009999976493418217 0.00002184694130846765 -3.5593255773291865e-12 
vn 0.009999976493418217 0.00002184694130846765 -3.5593255773291865e-12 
vn 0.009999976493418217 0.00002184694130846765 -3.5593255773291865e-12 
vn 0.009999976493418217 0.00002184694130846765 -3.5593255773291865e-12 
vn 0.009999976493418217 0.00002184694130846765 -3.5593255773291865e-12 
vn 0.009999976493418217 0.00002184694130846765 -3.5593255773291865e-12 
vn 0.009999976493418217 0.00002184694130846765 -3.5593255773291865e-12 
vn 0.009999976493418217 0.00002184694130846765 -3.5593255773291865e-12 
vn 0.009999976493418217 0.00002184694130846765 -3.5593255773291865e-12 
vn 0.009999976493418217 0.00002184694130846765 -3.5593255773291865e-12 
vn 0.009999976493418217 0.00002184694130846765 -3.5593255773291865e-12 
vn 0.009999976493418217 0.00002184694130846765 -3.5593255773291865e-12 
vn 0.009999976493418217 0.00002184694130846765 -3.5593255773291865e-12 
vn 0.009999976493418217 0.00002184694130846765 -3.5593255773291865e-12 
vn 0.009999976493418217 0.00002184694130846765 -3.5593255773291865e-12 
vn 0.009999976493418217 0.00002184694130846765 -3.5593255773291865e-12 
vn 0.009999976493418217 0.00002184694130846765 -3.5593255773291865e-12 
vn 0.009999976493418217 0.00002184694130846765 -3.5593255773291865e-12 
vn -0.009999976493418217 0.00002184694130846765 -3.557257353264953e-12 
vn -0.009999976493418217 0.00002184694130846765 -3.557257353264953e-12 
vn -0.009999976493418217 0.00002184694130846765 -3.557257353264953e-12 
vn -0.009999976493418217 0.00002184694130846765 -3.557257353264953e-12 
vn -0.009999976493418217 0.00002184694130846765 -3.557257353264953e-12 
vn -0.009999976493418217 0.00002184694130846765 -3.557257353264953e-12 
vn -0.009999976493418217 0.00002184694130846765 -3.557257353264953e-12 
vn -0.009999976493418217 0.00002184694130846765 -3.557257353264953e-12 
vn -0.009999976493418217 0.00002184694130846765 -3.557257353264953e-12 
vn -0.009999976493418217 0.00002184694130846765 -3.557257353264953e-12 
vn -0.009999976493418217 0.00002184694130846765 -3.557257353264953e-12 
vn -0.009999976493418217 0.00002184694130846765 -3.557257353264953e-12 
vn -0.009999976493418217 0.00002184694130846765 -3.557257353264953e-12 
vn -0.009999976493418217 0.00002184694130846765 -3.557257353264953e-12 
vn -0.009999976493418217 0.00002184694130846765 -3.557257353264953e-12 
vn -0.009999976493418217 0.00002184694130846765 -3.557257353264953e-12 
vn -0.009999976493418217 0.00002184694130846765 -3.557257353264953e-12 
vn -0.009999976493418217 0.00002184694130846765 -3.557257353264953e-12 
vn -0.009999976493418217 0.00002184694130846765 -3.557257353264953e-12 
vn -0.009999976493418217 0.00002184694130846765 -3.557257353264953e-12 
vn 0.006970950402319431 -0.0030735426116734743 0.006477593909949064 
vn 0.0023709877859801054 0.00019661069381982088 0.009712868370115757 
vn 0.001332624233327806 0.00024029416090343148 0.009907896630465984 
vn 0.0013330059591680765 -0.000021846191884833388 0.009910734370350838 
vn 0.00012867974874097854 0.00002184769618907012 0.009999150410294533 
vn 0.00012867974874097854 0.00002184769618907012 0.009999150410294533 
vn 0.0013330059591680765 -0.000021846191884833388 0.009910734370350838 
vn 0.002371440641582012 0.000021847677999176085 0.009714722633361816 
vn 0.0026634675450623035 0.00015292347234208137 0.00963756162673235 
vn 0.007587467785924673 -0.0031565818935632706 0.005697926040738821 
vn 0.0028799010906368494 0.0003276464412920177 0.009570728987455368 
vn 0.00266377255320549 0.000021847672542207874 0.009638666175305843 
vn 0.005815139040350914 0.004949462600052357 0.006456547882407904 
vn 0.00266377255320549 0.000021847672542207874 0.009638666175305843 
vn 0.002314855344593525 -0.0014585241442546248 0.009618429467082024 
vn 0.0027361728716641665 -0.00015292201715055853 0.009617172181606293 
vn 0.002680966630578041 -0.0005459017702378333 0.009618443436920643 
vn 0.0024442702997475863 -0.00019660922407638282 0.009694686159491539 
vn 0.002371440641582012 0.000021847677999176085 0.009714722633361816 
vn 0.001332751358859241 -0.0001966092095244676 0.009908842854201794 
vn 0.00012865518510807306 -0.0001966092095244676 0.009997241199016571 
vn -0.0050412742421031 0.003073543542996049 0.0080708684399724 
vn 0.0022006419021636248 -0.002528349868953228 0.009421499446034431 
vn -0.0010772142559289932 -0.00024029266205616295 0.009938908740878105 
vn -0.005980389192700386 0.003031935542821884 0.00741905253380537 
vn -0.0013434127904474735 -0.0024860515259206295 0.009592436254024506 
vn -0.0021937694400548935 -0.00024029267660807818 0.009753444232046604 
vn -0.0029796238522976637 -0.0026128010358661413 0.00918123871088028 
vn -0.002341229934245348 -0.00015292201715055853 0.009720869362354279 
vn -0.00047509814612567425 -0.0002839715452864766 0.00998467206954956 
vn -0.00226801261305809 0.000021847674361197278 0.009739388711750507 
vn -0.004486320074647665 -0.005175534635782242 0.007286068983376026 
vn -0.0021943978499621153 0.00002184767618018668 0.00975623819977045 
vn -0.0010775228729471564 0.00002184769073210191 0.009941755793988705 
vn -0.0010775228729471564 0.00002184769073210191 0.009941755793988705 
vn -0.0021943978499621153 0.00002184767618018668 0.00975623819977045 
vn -0.00226801261305809 0.000021847674361197278 0.009739388711750507 
vn -0.0002494990185368806 0.0009815309895202518 0.00994858704507351 
vn -0.002341051120311022 0.00019661069381982088 0.009720126166939735 
vn -0.0005506027955561876 0.00019661072292365134 0.009982896037399769 
vn -0.002193518215790391 0.0002839730295818299 0.009752326644957066 
vn 0.00020105241856072098 0.002188681624829769 0.009755474515259266 
vn -0.0010772142559289932 0.00024029416090343148 0.009938908740878105 
vn 0.005204459652304649 -0.002948545152321458 0.008013720624148846 
vn 0.00012864290329162031 0.00024029416090343148 0.00999628659337759 
vn 0.006140509620308876 -0.0030319346114993095 0.007287081331014633 
vn 0.006970950402319431 -0.0030735426116734743 0.006477593909949064 
vn 0.0023709877859801054 0.00019661069381982088 0.009712868370115757 
vn 0.001332624233327806 0.00024029416090343148 0.009907896630465984 
vn 0.0013330059591680765 -0.000021846191884833388 0.009910734370350838 
vn 0.00012867974874097854 0.00002184769618907012 0.009999150410294533 
vn 0.00012867974874097854 0.00002184769618907012 0.009999150410294533 
vn 0.0013330059591680765 -0.000021846191884833388 0.009910734370350838 
vn 0.002371440641582012 0.000021847677999176085 0.009714722633361816 
vn 0.0026634675450623035 0.00015292347234208137 0.00963756162673235 
vn 0.007587467785924673 -0.0031565818935632706 0.005697926040738821 
vn 0.0028799010906368494 0.0003276464412920177 0.009570728987455368 
vn 0.00266377255320549 0.000021847672542207874 0.009638666175305843 
vn 0.005815139040350914 0.004949462600052357 0.006456547882407904 
vn 0.00266377255320549 0.000021847672542207874 0.009638666175305843 
vn 0.002314855344593525 -0.0014585241442546248 0.009618429467082024 
vn 0.0027361728716641665 -0.00015292201715055853 0.009617172181606293 
vn 0.002680966630578041 -0.0005459017702378333 0.009618443436920643 
vn 0.0024442702997475863 -0.00019660922407638282 0.009694686159491539 
vn 0.002371440641582012 0.000021847677999176085 0.009714722633361816 
vn 0.001332751358859241 -0.0001966092095244676 0.009908842854201794 
vn 0.00012865518510807306 -0.0001966092095244676 0.009997241199016571 
vn -0.0050412742421031 0.003073543542996049 0.0080708684399724 
vn 0.0022006419021636248 -0.002528349868953228 0.009421499446034431 
vn -0.0010772142559289932 -0.00024029266205616295 0.009938908740878105 
vn -0.005980389192700386 0.003031935542821884 0.00741905253380537 
vn -0.0013434127904474735 -0.0024860515259206295 0.009592436254024506 
vn -0.0021937694400548935 -0.00024029267660807818 0.009753444232046604 
vn -0.0029796238522976637 -0.0026128010358661413 0.00918123871088028 
vn -0.002341229934245348 -0.00015292201715055853 0.009720869362354279 
vn -0.00047509814612567425 -0.0002839715452864766 0.00998467206954956 
vn -0.00226801261305809 0.000021847674361197278 0.009739388711750507 
vn -0.004486320074647665 -0.005175534635782242 0.007286068983376026 
vn -0.0021943978499621153 0.00002184767618018668 0.00975623819977045 
vn -0.0010775228729471564 0.00002184769073210191 0.009941755793988705 
vn -0.0010775228729471564 0.00002184769073210191 0.009941755793988705 
vn -0.0021943978499621153 0.00002184767618018668 0.00975623819977045 
vn -0.00226801261305809 0.000021847674361197278 0.009739388711750507 
vn -0.0002494990185368806 0.0009815309895202518 0.00994858704507351 
vn -0.002341051120311022 0.00019661069381982088 0.009720126166939735 
vn -0.0005506027955561876 0.00019661072292365134 0.009982896037399769 
vn -0.002193518215790391 0.0002839730295818299 0.009752326644957066 
vn 0.00020105241856072098 0.002188681624829769 0.009755474515259266 
vn -0.0010772142559289932 0.00024029416090343148 0.009938908740878105 
vn 0.005204459652304649 -0.002948545152321458 0.008013720624148846 
vn 0.00012864290329162031 0.00024029416090343148 0.00999628659337759 
vn 0.006140509620308876 -0.0030319346114993095 0.007287081331014633 
vn -0.006970949936658144 -0.0030735433101654053 -0.0064775943756103516 
vn -0.002370986854657531 0.0001966095296666026 -0.009712868370115757 
vn -0.0013326231855899096 0.00024029296764638275 -0.009907896630465984 
vn -0.00133300491143018 -0.000021847376046935096 -0.009910734370350838 
vn -0.00012867874465882778 0.000021846504751010798 -0.009999150410294533 
vn -0.00012867874465882778 0.000021846504751010798 -0.009999150410294533 
vn -0.00133300491143018 -0.000021847376046935096 -0.009910734370350838 
vn -0.0023714397102594376 0.00002184651566494722 -0.009714722633361816 
vn -0.002663466613739729 0.00015292232274077833 -0.009637562558054924 
vn -0.007587467320263386 -0.0031565825920552015 -0.005697926506400108 
vn -0.002879900159314275 0.0003276453062426299 -0.009570728987455368 
vn -0.0026637716218829155 0.000021846519302926026 -0.009638666175305843 
vn -0.005815138574689627 0.004949461668729782 -0.006456549279391766 
vn -0.0026637716218829155 0.000021846519302926026 -0.009638666175305843 
vn -0.0023148541804403067 -0.0014585253084078431 -0.009618429467082024 
vn -0.002736171940341592 -0.00015292316675186157 -0.009617173112928867 
vn -0.0026809656992554665 -0.0005459028761833906 -0.009618443436920643 
vn -0.002444269135594368 -0.00019661038822960109 -0.009694686159491539 
vn -0.0023714397102594376 0.00002184651566494722 -0.009714722633361816 
vn -0.0013327504275366664 -0.00019661040278151631 -0.009908842854201794 
vn -0.0001286541810259223 -0.00019661040278151631 -0.009997241199016571 
vn 0.0050412751734256744 0.0030735426116734743 -0.0080708684399724 
vn -0.00220064097084105 -0.0025283510331064463 -0.009421499446034431 
vn 0.0010772153036668897 -0.00024029384076129645 -0.009938908740878105 
vn 0.005980390124022961 0.003031934844329953 -0.00741905253380537 
vn 0.00134341383818537 -0.0024860526900738478 -0.009592435322701931 
vn 0.002193770371377468 -0.00024029382620938122 -0.009753444232046604 
vn 0.0029796247836202383 -0.0026128022000193596 -0.009181237779557705 
vn 0.0023412310983985662 -0.00015292316675186157 -0.009720869362354279 
vn 0.0004750991356559098 -0.0002839727094396949 -0.00998467206954956 
vn 0.0022680137772113085 0.000021846517483936623 -0.009739387780427933 
vn 0.00448632100597024 -0.0051755355671048164 -0.007286067586392164 
vn 0.00219439878128469 0.00002184651566494722 -0.00975623819977045 
vn 0.0010775239206850529 0.000021846508388989605 -0.009941755793988705 
vn 0.0010775239206850529 0.000021846508388989605 -0.009941755793988705 
vn 0.00219439878128469 0.00002184651566494722 -0.00975623819977045 
vn 0.0022680137772113085 0.000021846517483936623 -0.009739387780427933 
vn 0.0002495000371709466 0.0009815298253670335 -0.00994858704507351 
vn 0.00234105228446424 0.00019660954421851784 -0.009720126166939735 
vn 0.0005506037850864232 0.0001966095296666026 -0.009982896037399769 
vn 0.0021935191471129656 0.00028397186542861164 -0.009752326644957066 
vn -0.00020105144358240068 0.002188680460676551 -0.00975547544658184 
vn 0.0010772153036668897 0.00024029296764638275 -0.009938908740878105 
vn -0.005204458720982075 -0.0029485460836440325 -0.008013720624148846 
vn -0.00012864189920946956 0.00024029296764638275 -0.009996287524700165 
vn -0.006140508688986301 -0.0030319353099912405 -0.0072870817966759205 
vn -0.006970949936658144 -0.0030735433101654053 -0.0064775943756103516 
vn -0.002370986854657531 0.0001966095296666026 -0.009712868370115757 
vn -0.0013326231855899096 0.00024029296764638275 -0.009907896630465984 
vn -0.00133300491143018 -0.000021847376046935096 -0.009910734370350838 
vn -0.00012867874465882778 0.000021846504751010798 -0.009999150410294533 
vn -0.00012867874465882778 0.000021846504751010798 -0.009999150410294533 
vn -0.00133300491143018 -0.000021847376046935096 -0.009910734370350838 
vn -0.0023714397102594376 0.00002184651566494722 -0.009714722633361816 
vn -0.002663466613739729 0.00015292232274077833 -0.009637562558054924 
vn -0.007587467320263386 -0.0031565825920552015 -0.005697926506400108 
vn -0.002879900159314275 0.0003276453062426299 -0.009570728987455368 
vn -0.0026637716218829155 0.000021846519302926026 -0.009638666175305843 
vn -0.005815138574689627 0.004949461668729782 -0.006456549279391766 
vn -0.0026637716218829155 0.000021846519302926026 -0.009638666175305843 
vn -0.0023148541804403067 -0.0014585253084078431 -0.009618429467082024 
vn -0.002736171940341592 -0.00015292316675186157 -0.009617173112928867 
vn -0.0026809656992554665 -0.0005459028761833906 -0.009618443436920643 
vn -0.002444269135594368 -0.00019661038822960109 -0.009694686159491539 
vn -0.0023714397102594376 0.00002184651566494722 -0.009714722633361816 
vn -0.0013327504275366664 -0.00019661040278151631 -0.009908842854201794 
vn -0.0001286541810259223 -0.00019661040278151631 -0.009997241199016571 
vn 0.0050412751734256744 0.0030735426116734743 -0.0080708684399724 
vn -0.00220064097084105 -0.0025283510331064463 -0.009421499446034431 
vn 0.0010772153036668897 -0.00024029384076129645 -0.009938908740878105 
vn 0.005980390124022961 0.003031934844329953 -0.00741905253380537 
vn 0.00134341383818537 -0.0024860526900738478 -0.009592435322701931 
vn 0.002193770371377468 -0.00024029382620938122 -0.009753444232046604 
vn 0.0029796247836202383 -0.0026128022000193596 -0.009181237779557705 
vn 0.0023412310983985662 -0.00015292316675186157 -0.009720869362354279 
vn 0.0004750991356559098 -0.0002839727094396949 -0.00998467206954956 
vn 0.0022680137772113085 0.000021846517483936623 -0.009739387780427933 
vn 0.00448632100597024 -0.0051755355671048164 -0.007286067586392164 
vn 0.00219439878128469 0.00002184651566494722 -0.00975623819977045 
vn 0.0010775239206850529 0.000021846508388989605 -0.009941755793988705 
vn 0.0010775239206850529 0.000021846508388989605 -0.009941755793988705 
vn 0.00219439878128469 0.00002184651566494722 -0.00975623819977045 
vn 0.0022680137772113085 0.000021846517483936623 -0.009739387780427933 
vn 0.0002495000371709466 0.0009815298253670335 -0.00994858704507351 
vn 0.00234105228446424 0.00019660954421851784 -0.009720126166939735 
vn 0.0005506037850864232 0.0001966095296666026 -0.009982896037399769 
vn 0.0021935191471129656 0.00028397186542861164 -0.009752326644957066 
vn -0.00020105144358240068 0.002188680460676551 -0.00975547544658184 
vn 0.0010772153036668897 0.00024029296764638275 -0.009938908740878105 
vn -0.005204458720982075 -0.0029485460836440325 -0.008013720624148846 
vn -0.00012864189920946956 0.00024029296764638275 -0.009996287524700165 
vn -0.006140508688986301 -0.0030319353099912405 -0.0072870817966759205 
vn -0.006970949936658144 -0.0030735433101654053 -0.0064775943756103516 
vn -0.002370986854657531 0.0001966095296666026 -0.009712868370115757 
vn -0.0013326231855899096 0.00024029296764638275 -0.009907896630465984 
vn -0.00133300491143018 -0.000021847376046935096 -0.009910734370350838 
vn -0.00012867874465882778 0.000021846504751010798 -0.009999150410294533 
vn -0.00012867874465882778 0.000021846504751010798 -0.009999150410294533 
vn -0.00133300491143018 -0.000021847376046935096 -0.009910734370350838 
vn -0.0023714397102594376 0.00002184651566494722 -0.009714722633361816 
vn -0.002663466613739729 0.00015292232274077833 -0.009637562558054924 
vn -0.007587467320263386 -0.0031565825920552015 -0.005697926506400108 
vn -0.002879900159314275 0.0003276453062426299 -0.009570728987455368 
vn -0.0026637716218829155 0.000021846519302926026 -0.009638666175305843 
vn -0.005815138574689627 0.004949461668729782 -0.006456549279391766 
vn -0.0026637716218829155 0.000021846519302926026 -0.009638666175305843 
vn -0.0023148541804403067 -0.0014585253084078431 -0.009618429467082024 
vn -0.002736171940341592 -0.00015292316675186157 -0.009617173112928867 
vn -0.0026809656992554665 -0.0005459028761833906 -0.009618443436920643 
vn -0.002444269135594368 -0.00019661038822960109 -0.009694686159491539 
vn -0.0023714397102594376 0.00002184651566494722 -0.009714722633361816 
vn -0.0013327504275366664 -0.00019661040278151631 -0.009908842854201794 
vn -0.0001286541810259223 -0.00019661040278151631 -0.009997241199016571 
vn 0.0050412751734256744 0.0030735426116734743 -0.0080708684399724 
vn -0.00220064097084105 -0.0025283510331064463 -0.009421499446034431 
vn 0.0010772153036668897 -0.00024029384076129645 -0.009938908740878105 
vn 0.005980390124022961 0.003031934844329953 -0.00741905253380537 
vn 0.00134341383818537 -0.0024860526900738478 -0.009592435322701931 
vn 0.002193770371377468 -0.00024029382620938122 -0.009753444232046604 
vn 0.0029796247836202383 -0.0026128022000193596 -0.009181237779557705 
vn 0.0023412310983985662 -0.00015292316675186157 -0.009720869362354279 
vn 0.0004750991356559098 -0.0002839727094396949 -0.00998467206954956 
vn 0.0022680137772113085 0.000021846517483936623 -0.009739387780427933 
vn 0.00448632100597024 -0.0051755355671048164 -0.007286067586392164 
vn 0.00219439878128469 0.00002184651566494722 -0.00975623819977045 
vn 0.0010775239206850529 0.000021846508388989605 -0.009941755793988705 
vn 0.0010775239206850529 0.000021846508388989605 -0.009941755793988705 
vn 0.00219439878128469 0.00002184651566494722 -0.00975623819977045 
vn 0.0022680137772113085 0.000021846517483936623 -0.009739387780427933 
vn 0.0002495000371709466 0.0009815298253670335 -0.00994858704507351 
vn 0.00234105228446424 0.00019660954421851784 -0.009720126166939735 
vn 0.0005506037850864232 0.0001966095296666026 -0.009982896037399769 
vn 0.0021935191471129656 0.00028397186542861164 -0.009752326644957066 
vn -0.00020105144358240068 0.002188680460676551 -0.00975547544658184 
vn 0.0010772153036668897 0.00024029296764638275 -0.009938908740878105 
vn -0.005204458720982075 -0.0029485460836440325 -0.008013720624148846 
vn -0.00012864189920946956 0.00024029296764638275 -0.009996287524700165 
vn -0.006140508688986301 -0.0030319353099912405 -0.0072870817966759205 
vn 0.00697094714269042 -0.0030735426116734743 0.006477597169578075 
vn 0.0023709828965365887 0.00019661069381982088 0.009712869301438332 
vn 0.0013326192274689674 0.00024029416090343148 0.009907896630465984 
vn 0.001333000953309238 -0.000021846191884833388 0.009910735301673412 
vn 0.00012867474288213998 0.00002184769618907012 0.009999150410294533 
vn 0.00012867474288213998 0.00002184769618907012 0.009999150410294533 
vn 0.001333000953309238 -0.000021846191884833388 0.009910735301673412 
vn 0.0023714357521384954 0.000021847677999176085 0.009714723564684391 
vn 0.002663462655618787 0.00015292347234208137 0.009637563489377499 
vn 0.007587464991956949 -0.0031565818935632706 0.0056979297660291195 
vn 0.0028798962011933327 0.0003276464412920177 0.009570730850100517 
vn 0.002663767896592617 0.000021847672542207874 0.009638667106628418 
vn 0.00581513624638319 0.004949462600052357 0.0064565506763756275 
vn 0.002663767896592617 0.000021847672542207874 0.009638667106628418 
vn 0.002314850455150008 -0.0014585241442546248 0.009618431329727173 
vn 0.0027361682150512934 -0.00015292201715055853 0.009617174044251442 
vn 0.0026809617411345243 -0.0005459017702378333 0.009618444368243217 
vn 0.0024442654103040695 -0.00019660922407638282 0.009694687090814114 
vn 0.0023714357521384954 0.000021847677999176085 0.009714723564684391 
vn 0.0013327464694157243 -0.0001966092095244676 0.009908842854201794 
vn 0.0001286501792492345 -0.0001966092095244676 0.009997241199016571 
vn -0.005041278433054686 0.003073543542996049 0.008070865646004677 
vn 0.0022006372455507517 -0.002528349868953228 0.00942150130867958 
vn -0.0010772192617878318 -0.00024029266205616295 0.009938908740878105 
vn -0.0059803929179906845 0.003031935542821884 0.0074190497398376465 
vn -0.0013434176798909903 -0.0024860515259206295 0.009592435322701931 
vn -0.0021937743294984102 -0.00024029267660807818 0.00975344330072403 
vn -0.0029796285089105368 -0.0026128010358661413 0.009181237779557705 
vn -0.0023412348236888647 -0.00015292201715055853 0.009720868431031704 
vn -0.00047510312288068235 -0.0002839715452864766 0.00998467206954956 
vn -0.002268017502501607 0.000021847674361197278 0.009739386849105358 
vn -0.0044863237999379635 -0.005175534635782242 0.00728606665506959 
vn -0.002194402739405632 0.000021847674361197278 0.009756237268447876 
vn -0.001077527878805995 0.00002184769073210191 0.00994175486266613 
vn -0.001077527878805995 0.00002184769073210191 0.00994175486266613 
vn -0.002194402739405632 0.000021847674361197278 0.009756237268447876 
vn -0.002268017502501607 0.000021847674361197278 0.009739386849105358 
vn -0.0002495039952918887 0.0009815309895202518 0.00994858704507351 
vn -0.0023410560097545385 0.00019661069381982088 0.00972012523561716 
vn -0.0005506078014150262 0.0001966107083717361 0.009982896037399769 
vn -0.0021935231052339077 0.0002839730295818299 0.009752325713634491 
vn 0.00020104754366911948 0.002188681624829769 0.009755474515259266 
vn -0.0010772192617878318 0.00024029416090343148 0.00993890780955553 
vn 0.005204455461353064 -0.002948545152321458 0.008013722486793995 
vn 0.00012863789743278176 0.00024029416090343148 0.009996287524700165 
vn 0.006140505895018578 -0.0030319346114993095 0.007287084590643644 
vt 0.35020214319229126 0.4487690031528473 
vt 0.35020214319229126 0.8866700530052185 
vt 0.047926899045705795 0.4487690031528473 
vt 0.047926899045705795 0.8866700530052185 
vt 0.35020214319229126 0.4487690031528473 
vt 0.35020214319229126 0.8866700530052185 
vt 0.047926899045705795 0.4487690031528473 
vt 0.047926899045705795 0.8866700530052185 
vt 0.35020214319229126 0.4487690031528473 
vt 0.35020214319229126 0.8866700530052185 
vt 0.047926899045705795 0.4487690031528473 
vt 0.047926899045705795 0.8866700530052185 
vt 0.35020214319229126 0.4487690031528473 
vt 0.35020214319229126 0.8866700530052185 
vt 0.047926899045705795 0.4487690031528473 
vt 0.047926899045705795 0.8866700530052185 
vt 0.35020214319229126 0.4487690031528473 
vt 0.35020214319229126 0.8866700530052185 
vt 0.047926899045705795 0.4487690031528473 
vt 0.047926899045705795 0.8866700530052185 
vt 0.047926899045705795 0.8866700530052185 
vt 0.35020214319229126 0.8866700530052185 
vt 0.047926899045705795 0.4487690031528473 
vt 0.35020214319229126 0.4487690031528473 
vt 0.047926899045705795 0.8866700530052185 
vt 0.35020214319229126 0.8866700530052185 
vt 0.047926899045705795 0.4487690031528473 
vt 0.35020214319229126 0.4487690031528473 
vt 0.047926899045705795 0.8866700530052185 
vt 0.35020214319229126 0.8866700530052185 
vt 0.047926899045705795 0.4487690031528473 
vt 0.35020214319229126 0.4487690031528473 
vt 0.047926899045705795 0.8866700530052185 
vt 0.35020214319229126 0.8866700530052185 
vt 0.047926899045705795 0.4487690031528473 
vt 0.35020214319229126 0.4487690031528473 
vt 0.047926899045705795 0.8866700530052185 
vt 0.35020214319229126 0.8866700530052185 
vt 0.047926899045705795 0.4487690031528473 
vt 0.35020214319229126 0.4487690031528473 
vt 0.5648496150970459 0.7716466188430786 
vt 0.4709528088569641 0.7682055830955505 
vt 0.5648496150970459 0.7682055830955505 
vt 0.5648496150970459 0.6879242658615112 
vt 0.6741181015968323 0.6879242658615112 
vt 0.6741181015968323 0.6076122522354126 
vt 0.5648496150970459 0.6076122522354126 
vt 0.4709528088569641 0.6879242658615112 
vt 0.42446741461753845 0.7682055830955505 
vt 0.4709528088569641 0.7716466188430786 
vt 0.42131900787353516 0.7716466188430786 
vt 0.42446741461753845 0.6879242658615112 
vt 0.42131900787353516 0.6890610456466675 
vt 0.42446741461753845 0.6073357462882996 
vt 0.42131900787353516 0.605891764163971 
vt 0.42446741461753845 0.5236748456954956 
vt 0.42131900787353516 0.5199880003929138 
vt 0.4709528088569641 0.527300238609314 
vt 0.4709528088569641 0.6076122522354126 
vt 0.5648496150970459 0.5273309946060181 
vt 0.6741181015968323 0.5273309946060181 
vt 0.5648496150970459 0.5238898992538452 
vt 0.4709528088569641 0.5238592028617859 
vt 0.7833865880966187 0.5273309946060181 
vt 0.6741181015968323 0.5238898992538452 
vt 0.7833865880966187 0.5238898992538452 
vt 0.877345085144043 0.527300238609314 
vt 0.877345085144043 0.5238898992538452 
vt 0.923830509185791 0.527300238609314 
vt 0.9269789457321167 0.5238898992538452 
vt 0.923830509185791 0.6076122522354126 
vt 0.9269789457321167 0.6064754724502563 
vt 0.877345085144043 0.6076122522354126 
vt 0.7834482789039612 0.6076122522354126 
vt 0.7834482789039612 0.6879242658615112 
vt 0.877345085144043 0.6878935694694519 
vt 0.923830509185791 0.6878935694694519 
vt 0.9269789457321167 0.6890610456466675 
vt 0.923830509185791 0.7682055830955505 
vt 0.9269789457321167 0.7716466188430786 
vt 0.877345085144043 0.7682055830955505 
vt 0.877345085144043 0.7716466188430786 
vt 0.7834482789039612 0.7682055830955505 
vt 0.7834482789039612 0.7716466188430786 
vt 0.6741181015968323 0.7682055830955505 
vt 0.6741181015968323 0.7716466188430786 
vt 0.5648496150970459 0.7716466188430786 
vt 0.4709528088569641 0.7682055830955505 
vt 0.5648496150970459 0.7682055830955505 
vt 0.5648496150970459 0.6879242658615112 
vt 0.6741181015968323 0.6879242658615112 
vt 0.6741181015968323 0.6076122522354126 
vt 0.5648496150970459 0.6076122522354126 
vt 0.4709528088569641 0.6879242658615112 
vt 0.42446741461753845 0.7682055830955505 
vt 0.4709528088569641 0.7716466188430786 
vt 0.42131900787353516 0.7716466188430786 
vt 0.42446741461753845 0.6879242658615112 
vt 0.42131900787353516 0.6890610456466675 
vt 0.42446741461753845 0.6073357462882996 
vt 0.42131900787353516 0.605891764163971 
vt 0.42446741461753845 0.5236748456954956 
vt 0.42131900787353516 0.5199880003929138 
vt 0.4709528088569641 0.527300238609314 
vt 0.4709528088569641 0.6076122522354126 
vt 0.5648496150970459 0.5273309946060181 
vt 0.6741181015968323 0.5273309946060181 
vt 0.5648496150970459 0.5238898992538452 
vt 0.4709528088569641 0.5238592028617859 
vt 0.7833865880966187 0.5273309946060181 
vt 0.6741181015968323 0.5238898992538452 
vt 0.7833865880966187 0.5238898992538452 
vt 0.877345085144043 0.527300238609314 
vt 0.877345085144043 0.5238898992538452 
vt 0.923830509185791 0.527300238609314 
vt 0.9269789457321167 0.5238898992538452 
vt 0.923830509185791 0.6076122522354126 
vt 0.9269789457321167 0.6064754724502563 
vt 0.877345085144043 0.6076122522354126 
vt 0.7834482789039612 0.6076122522354126 
vt 0.7834482789039612 0.6879242658615112 
vt 0.877345085144043 0.6878935694694519 
vt 0.923830509185791 0.6878935694694519 
vt 0.9269789457321167 0.6890610456466675 
vt 0.923830509185791 0.7682055830955505 
vt 0.9269789457321167 0.7716466188430786 
vt 0.877345085144043 0.7682055830955505 
vt 0.877345085144043 0.7716466188430786 
vt 0.7834482789039612 0.7682055830955505 
vt 0.7834482789039612 0.7716466188430786 
vt 0.6741181015968323 0.7682055830955505 
vt 0.6741181015968323 0.7716466188430786 
vt 0.5648496150970459 0.7716466188430786 
vt 0.4709528088569641 0.7682055830955505 
vt 0.5648496150970459 0.7682055830955505 
vt 0.5648496150970459 0.6879242658615112 
vt 0.6741181015968323 0.6879242658615112 
vt 0.6741181015968323 0.6076122522354126 
vt 0.5648496150970459 0.6076122522354126 
vt 0.4709528088569641 0.6879242658615112 
vt 0.42446741461753845 0.7682055830955505 
vt 0.4709528088569641 0.7716466188430786 
vt 0.42131900787353516 0.7716466188430786 
vt 0.42446741461753845 0.6879242658615112 
vt 0.42131900787353516 0.6890610456466675 
vt 0.42446741461753845 0.6073357462882996 
vt 0.42131900787353516 0.605891764163971 
vt 0.42446741461753845 0.5236748456954956 
vt 0.42131900787353516 0.5199880003929138 
vt 0.4709528088569641 0.527300238609314 
vt 0.4709528088569641 0.6076122522354126 
vt 0.5648496150970459 0.5273309946060181 
vt 0.6741181015968323 0.5273309946060181 
vt 0.5648496150970459 0.5238898992538452 
vt 0.4709528088569641 0.5238592028617859 
vt 0.7833865880966187 0.5273309946060181 
vt 0.6741181015968323 0.5238898992538452 
vt 0.7833865880966187 0.5238898992538452 
vt 0.877345085144043 0.527300238609314 
vt 0.877345085144043 0.5238898992538452 
vt 0.923830509185791 0.527300238609314 
vt 0.9269789457321167 0.5238898992538452 
vt 0.923830509185791 0.6076122522354126 
vt 0.9269789457321167 0.6064754724502563 
vt 0.877345085144043 0.6076122522354126 
vt 0.7834482789039612 0.6076122522354126 
vt 0.7834482789039612 0.6879242658615112 
vt 0.877345085144043 0.6878935694694519 
vt 0.923830509185791 0.6878935694694519 
vt 0.9269789457321167 0.6890610456466675 
vt 0.923830509185791 0.7682055830955505 
vt 0.9269789457321167 0.7716466188430786 
vt 0.877345085144043 0.7682055830955505 
vt 0.877345085144043 0.7716466188430786 
vt 0.7834482789039612 0.7682055830955505 
vt 0.7834482789039612 0.7716466188430786 
vt 0.6741181015968323 0.7682055830955505 
vt 0.6741181015968323 0.7716466188430786 
vt 0.5648496150970459 0.7716466188430786 
vt 0.4709528088569641 0.7682055830955505 
vt 0.5648496150970459 0.7682055830955505 
vt 0.5648496150970459 0.6879242658615112 
vt 0.6741181015968323 0.6879242658615112 
vt 0.6741181015968323 0.6076122522354126 
vt 0.5648496150970459 0.6076122522354126 
vt 0.4709528088569641 0.6879242658615112 
vt 0.42446741461753845 0.7682055830955505 
vt 0.4709528088569641 0.7716466188430786 
vt 0.42131900787353516 0.7716466188430786 
vt 0.42446741461753845 0.6879242658615112 
vt 0.42131900787353516 0.6890610456466675 
vt 0.42446741461753845 0.6073357462882996 
vt 0.42131900787353516 0.605891764163971 
vt 0.42446741461753845 0.5236748456954956 
vt 0.42131900787353516 0.5199880003929138 
vt 0.4709528088569641 0.527300238609314 
vt 0.4709528088569641 0.6076122522354126 
vt 0.5648496150970459 0.5273309946060181 
vt 0.6741181015968323 0.5273309946060181 
vt 0.5648496150970459 0.5238898992538452 
vt 0.4709528088569641 0.5238592028617859 
vt 0.7833865880966187 0.5273309946060181 
vt 0.6741181015968323 0.5238898992538452 
vt 0.7833865880966187 0.5238898992538452 
vt 0.877345085144043 0.527300238609314 
vt 0.877345085144043 0.5238898992538452 
vt 0.923830509185791 0.527300238609314 
vt 0.9269789457321167 0.5238898992538452 
vt 0.923830509185791 0.6076122522354126 
vt 0.9269789457321167 0.6064754724502563 
vt 0.877345085144043 0.6076122522354126 
vt 0.7834482789039612 0.6076122522354126 
vt 0.7834482789039612 0.6879242658615112 
vt 0.877345085144043 0.6878935694694519 
vt 0.923830509185791 0.6878935694694519 
vt 0.9269789457321167 0.6890610456466675 
vt 0.923830509185791 0.7682055830955505 
vt 0.9269789457321167 0.7716466188430786 
vt 0.877345085144043 0.7682055830955505 
vt 0.877345085144043 0.7716466188430786 
vt 0.7834482789039612 0.7682055830955505 
vt 0.7834482789039612 0.7716466188430786 
vt 0.6741181015968323 0.7682055830955505 
vt 0.6741181015968323 0.7716466188430786 
vt 0.5648496150970459 0.7716466188430786 
vt 0.4709528088569641 0.7682055830955505 
vt 0.5648496150970459 0.7682055830955505 
vt 0.5648496150970459 0.6879242658615112 
vt 0.6741181015968323 0.6879242658615112 
vt 0.6741181015968323 0.6076122522354126 
vt 0.5648496150970459 0.6076122522354126 
vt 0.4709528088569641 0.6879242658615112 
vt 0.42446741461753845 0.7682055830955505 
vt 0.4709528088569641 0.7716466188430786 
vt 0.42131900787353516 0.7716466188430786 
vt 0.42446741461753845 0.6879242658615112 
vt 0.42131900787353516 0.6890610456466675 
vt 0.42446741461753845 0.6073357462882996 
vt 0.42131900787353516 0.605891764163971 
vt 0.42446741461753845 0.5236748456954956 
vt 0.42131900787353516 0.5199880003929138 
vt 0.4709528088569641 0.527300238609314 
vt 0.4709528088569641 0.6076122522354126 
vt 0.5648496150970459 0.5273309946060181 
vt 0.6741181015968323 0.5273309946060181 
vt 0.5648496150970459 0.5238898992538452 
vt 0.4709528088569641 0.5238592028617859 
vt 0.7833865880966187 0.5273309946060181 
vt 0.6741181015968323 0.5238898992538452 
vt 0.7833865880966187 0.5238898992538452 
vt 0.877345085144043 0.527300238609314 
vt 0.877345085144043 0.5238898992538452 
vt 0.923830509185791 0.527300238609314 
vt 0.9269789457321167 0.5238898992538452 
vt 0.923830509185791 0.6076122522354126 
vt 0.9269789457321167 0.6064754724502563 
vt 0.877345085144043 0.6076122522354126 
vt 0.7834482789039612 0.6076122522354126 
vt 0.7834482789039612 0.6879242658615112 
vt 0.877345085144043 0.6878935694694519 
vt 0.923830509185791 0.6878935694694519 
vt 0.9269789457321167 0.6890610456466675 
vt 0.923830509185791 0.7682055830955505 
vt 0.9269789457321167 0.7716466188430786 
vt 0.877345085144043 0.7682055830955505 
vt 0.877345085144043 0.7716466188430786 
vt 0.7834482789039612 0.7682055830955505 
vt 0.7834482789039612 0.7716466188430786 
vt 0.6741181015968323 0.7682055830955505 
vt 0.6741181015968323 0.7716466188430786 
vt 0.5648496150970459 0.7716466188430786 
vt 0.4709528088569641 0.7682055830955505 
vt 0.5648496150970459 0.7682055830955505 
vt 0.5648496150970459 0.6879242658615112 
vt 0.6741181015968323 0.6879242658615112 
vt 0.6741181015968323 0.6076122522354126 
vt 0.5648496150970459 0.6076122522354126 
vt 0.4709528088569641 0.6879242658615112 
vt 0.42446741461753845 0.7682055830955505 
vt 0.4709528088569641 0.7716466188430786 
vt 0.42131900787353516 0.7716466188430786 
vt 0.42446741461753845 0.6879242658615112 
vt 0.42131900787353516 0.6890610456466675 
vt 0.42446741461753845 0.6073357462882996 
vt 0.42131900787353516 0.605891764163971 
vt 0.42446741461753845 0.5236748456954956 
vt 0.42131900787353516 0.5199880003929138 
vt 0.4709528088569641 0.527300238609314 
vt 0.4709528088569641 0.6076122522354126 
vt 0.5648496150970459 0.5273309946060181 
vt 0.6741181015968323 0.5273309946060181 
vt 0.5648496150970459 0.5238898992538452 
vt 0.4709528088569641 0.5238592028617859 
vt 0.7833865880966187 0.5273309946060181 
vt 0.6741181015968323 0.5238898992538452 
vt 0.7833865880966187 0.5238898992538452 
vt 0.877345085144043 0.527300238609314 
vt 0.877345085144043 0.5238898992538452 
vt 0.923830509185791 0.527300238609314 
vt 0.9269789457321167 0.5238898992538452 
vt 0.923830509185791 0.6076122522354126 
vt 0.9269789457321167 0.6064754724502563 
vt 0.877345085144043 0.6076122522354126 
vt 0.7834482789039612 0.6076122522354126 
vt 0.7834482789039612 0.6879242658615112 
vt 0.877345085144043 0.6878935694694519 
vt 0.923830509185791 0.6878935694694519 
vt 0.9269789457321167 0.6890610456466675 
vt 0.923830509185791 0.7682055830955505 
vt 0.9269789457321167 0.7716466188430786 
vt 0.877345085144043 0.7682055830955505 
vt 0.877345085144043 0.7716466188430786 
vt 0.7834482789039612 0.7682055830955505 
vt 0.7834482789039612 0.7716466188430786 
vt 0.6741181015968323 0.7682055830955505 
vt 0.6741181015968323 0.7716466188430786 
s on 
f 1/1/1 2/2/2 3/3/3 
f 2/2/2 4/4/4 3/3/3 
f 3/3/3 4/4/4 4/4/4 
f 4/4/4 5/5/5 4/4/4 
f 4/4/4 5/5/5 5/5/5 
f 5/5/5 6/6/6 5/5/5 
f 5/5/5 6/6/6 7/7/7 
f 6/6/6 8/8/8 7/7/7 
f 7/7/7 8/8/8 8/8/8 
f 8/8/8 9/9/9 8/8/8 
f 8/8/8 9/9/9 9/9/9 
f 9/9/9 10/10/10 9/9/9 
f 9/9/9 10/10/10 11/11/11 
f 10/10/10 12/12/12 11/11/11 
f 11/11/11 12/12/12 12/12/12 
f 12/12/12 13/13/13 12/12/12 
f 12/12/12 13/13/13 13/13/13 
f 13/13/13 14/14/14 13/13/13 
f 13/13/13 14/14/14 15/15/15 
f 14/14/14 16/16/16 15/15/15 
f 15/15/15 16/16/16 16/16/16 
f 16/16/16 17/17/17 16/16/16 
f 16/16/16 17/17/17 17/17/17 
f 17/17/17 18/18/18 17/17/17 
f 17/17/17 18/18/18 19/19/19 
f 18/18/18 20/20/20 19/19/19 
f 19/19/19 20/20/20 20/20/20 
f 20/20/20 21/21/21 20/20/20 
f 20/20/20 21/21/21 21/21/21 
f 21/21/21 22/22/22 21/21/21 
f 21/21/21 22/22/22 23/23/23 
f 22/22/22 24/24/24 23/23/23 
f 23/23/23 24/24/24 24/24/24 
f 24/24/24 25/25/25 24/24/24 
f 24/24/24 25/25/25 25/25/25 
f 25/25/25 26/26/26 25/25/25 
f 25/25/25 26/26/26 27/27/27 
f 26/26/26 28/28/28 27/27/27 
f 27/27/27 28/28/28 28/28/28 
f 28/28/28 29/29/29 28/28/28 
f 28/28/28 29/29/29 29/29/29 
f 29/29/29 30/30/30 29/29/29 
f 29/29/29 30/30/30 31/31/31 
f 30/30/30 32/32/32 31/31/31 
f 31/31/31 32/32/32 32/32/32 
f 32/32/32 33/33/33 32/32/32 
f 32/32/32 33/33/33 33/33/33 
f 33/33/33 34/34/34 33/33/33 
f 33/33/33 34/34/34 35/35/35 
f 34/34/34 36/36/36 35/35/35 
f 35/35/35 36/36/36 36/36/36 
f 36/36/36 37/37/37 36/36/36 
f 36/36/36 37/37/37 37/37/37 
f 37/37/37 38/38/38 37/37/37 
f 37/37/37 38/38/38 39/39/39 
f 38/38/38 40/40/40 39/39/39 
f 39/39/39 40/40/40 40/40/40 
f 40/40/40 41/41/41 40/40/40 
f 40/40/40 41/41/41 41/41/41 
f 41/41/41 42/42/42 41/41/41 
f 41/41/41 42/42/42 43/43/43 
f 42/42/42 44/44/44 43/43/43 
f 43/43/43 44/44/44 45/45/45 
f 44/44/44 44/44/44 45/45/45 
f 45/45/45 44/44/44 46/46/46 
f 44/44/44 44/44/44 46/46/46 
f 46/46/46 44/44/44 47/47/47 
f 44/44/44 44/44/44 47/47/47 
f 47/47/47 44/44/44 48/48/48 
f 44/44/44 42/42/42 48/48/48 
f 48/48/48 42/42/42 49/49/49 
f 42/42/42 50/50/50 49/49/49 
f 49/49/49 50/50/50 49/49/49 
f 50/50/50 51/51/51 49/49/49 
f 49/49/49 51/51/51 52/52/52 
f 51/51/51 53/53/53 52/52/52 
f 52/52/52 53/53/53 54/54/54 
f 53/53/53 55/55/55 54/54/54 
f 54/54/54 55/55/55 56/56/56 
f 55/55/55 57/57/57 56/56/56 
f 56/56/56 57/57/57 56/56/56 
f 57/57/57 58/58/58 56/56/56 
f 56/56/56 58/58/58 54/54/54 
f 58/58/58 59/59/59 54/54/54 
f 54/54/54 59/59/59 52/52/52 
f 59/59/59 48/48/48 52/52/52 
f 52/52/52 48/48/48 49/49/49 
f 48/48/48 49/49/49 49/49/49 
f 49/49/49 49/49/49 42/42/42 
f 49/49/49 42/42/42 42/42/42 
f 42/42/42 42/42/42 50/50/50 
f 42/42/42 41/41/41 50/50/50 
f 50/50/50 41/41/41 41/41/41 
f 41/41/41 48/48/48 41/41/41 
f 41/41/41 48/48/48 48/48/48 
f 48/48/48 59/59/59 48/48/48 
f 48/48/48 59/59/59 47/47/47 
f 59/59/59 60/60/60 47/47/47 
f 47/47/47 60/60/60 61/61/61 
f 60/60/60 60/60/60 61/61/61 
f 61/61/61 60/60/60 62/62/62 
f 60/60/60 60/60/60 62/62/62 
f 62/62/62 60/60/60 63/63/63 
f 60/60/60 58/58/58 63/63/63 
f 63/63/63 58/58/58 57/57/57 
f 58/58/58 57/57/57 57/57/57 
f 57/57/57 57/57/57 59/59/59 
f 57/57/57 59/59/59 59/59/59 
f 59/59/59 59/59/59 60/60/60 
f 59/59/59 58/58/58 60/60/60 
f 60/60/60 58/58/58 58/58/58 
f 58/58/58 47/47/47 58/58/58 
f 58/58/58 47/47/47 47/47/47 
f 47/47/47 61/61/61 47/47/47 
f 47/47/47 61/61/61 46/46/46 
f 61/61/61 61/61/61 46/46/46 
f 46/46/46 61/61/61 64/64/64 
f 61/61/61 65/65/65 64/64/64 
f 64/64/64 65/65/65 64/64/64 
f 65/65/65 66/66/66 64/64/64 
f 64/64/64 66/66/66 67/67/67 
f 66/66/66 68/68/68 67/67/67 
f 67/67/67 68/68/68 69/69/69 
f 68/68/68 70/70/70 69/69/69 
f 69/69/69 70/70/70 71/71/71 
f 70/70/70 72/72/72 71/71/71 
f 71/71/71 72/72/72 72/72/72 
f 72/72/72 61/61/61 72/72/72 
f 72/72/72 61/61/61 61/61/61 
f 61/61/61 62/62/62 61/61/61 
f 61/61/61 62/62/62 65/65/65 
f 62/62/62 65/65/65 65/65/65 
f 65/65/65 65/65/65 71/71/71 
f 65/65/65 71/71/71 71/71/71 
f 71/71/71 71/71/71 69/69/69 
f 71/71/71 73/73/73 69/69/69 
f 69/69/69 73/73/73 67/67/67 
f 73/73/73 74/74/74 67/67/67 
f 67/67/67 74/74/74 64/64/64 
f 74/74/74 74/74/74 64/64/64 
f 64/64/64 74/74/74 46/46/46 
f 74/74/74 74/74/74 46/46/46 
f 46/46/46 74/74/74 45/45/45 
f 74/74/74 74/74/74 45/45/45 
f 45/45/45 74/74/74 75/75/75 
f 74/74/74 73/73/73 75/75/75 
f 75/75/75 73/73/73 76/76/76 
f 73/73/73 71/71/71 76/76/76 
f 76/76/76 71/71/71 77/77/77 
f 71/71/71 72/72/72 77/77/77 
f 77/77/77 72/72/72 77/77/77 
f 72/72/72 78/78/78 77/77/77 
f 77/77/77 78/78/78 79/79/79 
f 78/78/78 80/80/80 79/79/79 
f 79/79/79 80/80/80 81/81/81 
f 80/80/80 82/82/82 81/81/81 
f 81/81/81 82/82/82 83/83/83 
f 82/82/82 84/84/84 83/83/83 
f 83/83/83 84/84/84 85/85/85 
f 84/84/84 86/86/86 85/85/85 
f 85/85/85 86/86/86 86/86/86 
f 86/86/86 79/79/79 86/86/86 
f 86/86/86 79/79/79 79/79/79 
f 79/79/79 81/81/81 79/79/79 
f 79/79/79 81/81/81 77/77/77 
f 81/81/81 81/81/81 77/77/77 
f 77/77/77 81/81/81 76/76/76 
f 81/81/81 83/83/83 76/76/76 
f 76/76/76 83/83/83 75/75/75 
f 83/83/83 85/85/85 75/75/75 
f 75/75/75 85/85/85 45/45/45 
f 85/85/85 85/85/85 45/45/45 
f 45/45/45 85/85/85 43/43/43 
f 85/85/85 86/86/86 43/43/43 
f 43/43/43 86/86/86 41/41/41 
f 86/86/86 41/41/41 41/41/41 
f 41/41/41 41/41/41 87/87/87 
f 41/41/41 87/87/87 87/87/87 
f 87/87/87 87/87/87 87/87/87 
f 87/87/87 88/88/88 87/87/87 
f 87/87/87 88/88/88 89/89/89 
f 88/88/88 90/90/90 89/89/89 
f 89/89/89 90/90/90 91/91/91 
f 90/90/90 90/90/90 91/91/91 
f 91/91/91 90/90/90 92/92/92 
f 90/90/90 90/90/90 92/92/92 
f 92/92/92 90/90/90 93/93/93 
f 90/90/90 90/90/90 93/93/93 
f 93/93/93 90/90/90 94/94/94 
f 90/90/90 88/88/88 94/94/94 
f 94/94/94 88/88/88 95/95/95 
f 88/88/88 96/96/96 95/95/95 
f 95/95/95 96/96/96 95/95/95 
f 96/96/96 97/97/97 95/95/95 
f 95/95/95 97/97/97 98/98/98 
f 97/97/97 99/99/99 98/98/98 
f 98/98/98 99/99/99 100/100/100 
f 99/99/99 101/101/101 100/100/100 
f 100/100/100 101/101/101 102/102/102 
f 101/101/101 103/103/103 102/102/102 
f 102/102/102 103/103/103 102/102/102 
f 103/103/103 104/104/104 102/102/102 
f 102/102/102 104/104/104 100/100/100 
f 104/104/104 105/105/105 100/100/100 
f 100/100/100 105/105/105 98/98/98 
f 105/105/105 94/94/94 98/98/98 
f 98/98/98 94/94/94 95/95/95 
f 94/94/94 95/95/95 95/95/95 
f 95/95/95 95/95/95 88/88/88 
f 95/95/95 88/88/88 88/88/88 
f 88/88/88 88/88/88 96/96/96 
f 88/88/88 87/87/87 96/96/96 
f 96/96/96 87/87/87 87/87/87 
f 87/87/87 94/94/94 87/87/87 
f 87/87/87 94/94/94 94/94/94 
f 94/94/94 105/105/105 94/94/94 
f 94/94/94 105/105/105 93/93/93 
f 105/105/105 106/106/106 93/93/93 
f 93/93/93 106/106/106 107/107/107 
f 106/106/106 106/106/106 107/107/107 
f 107/107/107 106/106/106 108/108/108 
f 106/106/106 106/106/106 108/108/108 
f 108/108/108 106/106/106 109/109/109 
f 106/106/106 104/104/104 109/109/109 
f 109/109/109 104/104/104 103/103/103 
f 104/104/104 103/103/103 103/103/103 
f 103/103/103 103/103/103 105/105/105 
f 103/103/103 105/105/105 105/105/105 
f 105/105/105 105/105/105 106/106/106 
f 105/105/105 104/104/104 106/106/106 
f 106/106/106 104/104/104 104/104/104 
f 104/104/104 93/93/93 104/104/104 
f 104/104/104 93/93/93 93/93/93 
f 93/93/93 107/107/107 93/93/93 
f 93/93/93 107/107/107 92/92/92 
f 107/107/107 107/107/107 92/92/92 
f 92/92/92 107/107/107 110/110/110 
f 107/107/107 111/111/111 110/110/110 
f 110/110/110 111/111/111 110/110/110 
f 111/111/111 112/112/112 110/110/110 
f 110/110/110 112/112/112 113/113/113 
f 112/112/112 114/114/114 113/113/113 
f 113/113/113 114/114/114 115/115/115 
f 114/114/114 116/116/116 115/115/115 
f 115/115/115 116/116/116 117/117/117 
f 116/116/116 118/118/118 117/117/117 
f 117/117/117 118/118/118 118/118/118 
f 118/118/118 107/107/107 118/118/118 
f 118/118/118 107/107/107 107/107/107 
f 107/107/107 108/108/108 107/107/107 
f 107/107/107 108/108/108 111/111/111 
f 108/108/108 111/111/111 111/111/111 
f 111/111/111 111/111/111 117/117/117 
f 111/111/111 117/117/117 117/117/117 
f 117/117/117 117/117/117 115/115/115 
f 117/117/117 119/119/119 115/115/115 
f 115/115/115 119/119/119 113/113/113 
f 119/119/119 120/120/120 113/113/113 
f 113/113/113 120/120/120 110/110/110 
f 120/120/120 120/120/120 110/110/110 
f 110/110/110 120/120/120 92/92/92 
f 120/120/120 120/120/120 92/92/92 
f 92/92/92 120/120/120 91/91/91 
f 120/120/120 120/120/120 91/91/91 
f 91/91/91 120/120/120 121/121/121 
f 120/120/120 119/119/119 121/121/121 
f 121/121/121 119/119/119 122/122/122 
f 119/119/119 117/117/117 122/122/122 
f 122/122/122 117/117/117 123/123/123 
f 117/117/117 118/118/118 123/123/123 
f 123/123/123 118/118/118 123/123/123 
f 118/118/118 124/124/124 123/123/123 
f 123/123/123 124/124/124 125/125/125 
f 124/124/124 126/126/126 125/125/125 
f 125/125/125 126/126/126 127/127/127 
f 126/126/126 128/128/128 127/127/127 
f 127/127/127 128/128/128 129/129/129 
f 128/128/128 130/130/130 129/129/129 
f 129/129/129 130/130/130 131/131/131 
f 130/130/130 132/132/132 131/131/131 
f 131/131/131 132/132/132 132/132/132 
f 132/132/132 125/125/125 132/132/132 
f 132/132/132 125/125/125 125/125/125 
f 125/125/125 127/127/127 125/125/125 
f 125/125/125 127/127/127 123/123/123 
f 127/127/127 127/127/127 123/123/123 
f 123/123/123 127/127/127 122/122/122 
f 127/127/127 129/129/129 122/122/122 
f 122/122/122 129/129/129 121/121/121 
f 129/129/129 131/131/131 121/121/121 
f 121/121/121 131/131/131 91/91/91 
f 131/131/131 131/131/131 91/91/91 
f 91/91/91 131/131/131 89/89/89 
f 131/131/131 132/132/132 89/89/89 
f 89/89/89 132/132/132 87/87/87 
f 132/132/132 87/87/87 87/87/87 
f 87/87/87 87/87/87 133/133/133 
f 87/87/87 133/133/133 133/133/133 
f 133/133/133 133/133/133 133/133/133 
f 133/133/133 134/134/134 133/133/133 
f 133/133/133 134/134/134 135/135/135 
f 134/134/134 136/136/136 135/135/135 
f 135/135/135 136/136/136 137/137/137 
f 136/136/136 136/136/136 137/137/137 
f 137/137/137 136/136/136 138/138/138 
f 136/136/136 136/136/136 138/138/138 
f 138/138/138 136/136/136 139/139/139 
f 136/136/136 136/136/136 139/139/139 
f 139/139/139 136/136/136 140/140/140 
f 136/136/136 134/134/134 140/140/140 
f 140/140/140 134/134/134 141/141/141 
f 134/134/134 142/142/142 141/141/141 
f 141/141/141 142/142/142 141/141/141 
f 142/142/142 143/143/143 141/141/141 
f 141/141/141 143/143/143 144/144/144 
f 143/143/143 145/145/145 144/144/144 
f 144/144/144 145/145/145 146/146/146 
f 145/145/145 147/147/147 146/146/146 
f 146/146/146 147/147/147 148/148/148 
f 147/147/147 149/149/149 148/148/148 
f 148/148/148 149/149/149 148/148/148 
f 149/149/149 150/150/150 148/148/148 
f 148/148/148 150/150/150 146/146/146 
f 150/150/150 151/151/151 146/146/146 
f 146/146/146 151/151/151 144/144/144 
f 151/151/151 140/140/140 144/144/144 
f 144/144/144 140/140/140 141/141/141 
f 140/140/140 141/141/141 141/141/141 
f 141/141/141 141/141/141 134/134/134 
f 141/141/141 134/134/134 134/134/134 
f 134/134/134 134/134/134 142/142/142 
f 134/134/134 133/133/133 142/142/142 
f 142/142/142 133/133/133 133/133/133 
f 133/133/133 140/140/140 133/133/133 
f 133/133/133 140/140/140 140/140/140 
f 140/140/140 151/151/151 140/140/140 
f 140/140/140 151/151/151 139/139/139 
f 151/151/151 152/152/152 139/139/139 
f 139/139/139 152/152/152 153/153/153 
f 152/152/152 152/152/152 153/153/153 
f 153/153/153 152/152/152 154/154/154 
f 152/152/152 152/152/152 154/154/154 
f 154/154/154 152/152/152 155/155/155 
f 152/152/152 150/150/150 155/155/155 
f 155/155/155 150/150/150 149/149/149 
f 150/150/150 149/149/149 149/149/149 
f 149/149/149 149/149/149 151/151/151 
f 149/149/149 151/151/151 151/151/151 
f 151/151/151 151/151/151 152/152/152 
f 151/151/151 150/150/150 152/152/152 
f 152/152/152 150/150/150 150/150/150 
f 150/150/150 139/139/139 150/150/150 
f 150/150/150 139/139/139 139/139/139 
f 139/139/139 153/153/153 139/139/139 
f 139/139/139 153/153/153 138/138/138 
f 153/153/153 153/153/153 138/138/138 
f 138/138/138 153/153/153 156/156/156 
f 153/153/153 157/157/157 156/156/156 
f 156/156/156 157/157/157 156/156/156 
f 157/157/157 158/158/158 156/156/156 
f 156/156/156 158/158/158 159/159/159 
f 158/158/158 160/160/160 159/159/159 
f 159/159/159 160/160/160 161/161/161 
f 160/160/160 162/162/162 161/161/161 
f 161/161/161 162/162/162 163/163/163 
f 162/162/162 164/164/164 163/163/163 
f 163/163/163 164/164/164 164/164/164 
f 164/164/164 153/153/153 164/164/164 
f 164/164/164 153/153/153 153/153/153 
f 153/153/153 154/154/154 153/153/153 
f 153/153/153 154/154/154 157/157/157 
f 154/154/154 157/157/157 157/157/157 
f 157/157/157 157/157/157 163/163/163 
f 157/157/157 163/163/163 163/163/163 
f 163/163/163 163/163/163 161/161/161 
f 163/163/163 165/165/165 161/161/161 
f 161/161/161 165/165/165 159/159/159 
f 165/165/165 166/166/166 159/159/159 
f 159/159/159 166/166/166 156/156/156 
f 166/166/166 166/166/166 156/156/156 
f 156/156/156 166/166/166 138/138/138 
f 166/166/166 166/166/166 138/138/138 
f 138/138/138 166/166/166 137/137/137 
f 166/166/166 166/166/166 137/137/137 
f 137/137/137 166/166/166 167/167/167 
f 166/166/166 165/165/165 167/167/167 
f 167/167/167 165/165/165 168/168/168 
f 165/165/165 163/163/163 168/168/168 
f 168/168/168 163/163/163 169/169/169 
f 163/163/163 164/164/164 169/169/169 
f 169/169/169 164/164/164 169/169/169 
f 164/164/164 170/170/170 169/169/169 
f 169/169/169 170/170/170 171/171/171 
f 170/170/170 172/172/172 171/171/171 
f 171/171/171 172/172/172 173/173/173 
f 172/172/172 174/174/174 173/173/173 
f 173/173/173 174/174/174 175/175/175 
f 174/174/174 176/176/176 175/175/175 
f 175/175/175 176/176/176 177/177/177 
f 176/176/176 178/178/178 177/177/177 
f 177/177/177 178/178/178 178/178/178 
f 178/178/178 171/171/171 178/178/178 
f 178/178/178 171/171/171 171/171/171 
f 171/171/171 173/173/173 171/171/171 
f 171/171/171 173/173/173 169/169/169 
f 173/173/173 173/173/173 169/169/169 
f 169/169/169 173/173/173 168/168/168 
f 173/173/173 175/175/175 168/168/168 
f 168/168/168 175/175/175 167/167/167 
f 175/175/175 177/177/177 167/167/167 
f 167/167/167 177/177/177 137/137/137 
f 177/177/177 177/177/177 137/137/137 
f 137/137/137 177/177/177 135/135/135 
f 177/177/177 178/178/178 135/135/135 
f 135/135/135 178/178/178 133/133/133 
f 178/178/178 133/133/133 133/133/133 
f 133/133/133 133/133/133 179/179/179 
f 133/133/133 179/179/179 179/179/179 
f 179/179/179 179/179/179 179/179/179 
f 179/179/179 180/180/180 179/179/179 
f 179/179/179 180/180/180 181/181/181 
f 180/180/180 182/182/182 181/181/181 
f 181/181/181 182/182/182 183/183/183 
f 182/182/182 182/182/182 183/183/183 
f 183/183/183 182/182/182 184/184/184 
f 182/182/182 182/182/182 184/184/184 
f 184/184/184 182/182/182 185/185/185 
f 182/182/182 182/182/182 185/185/185 
f 185/185/185 182/182/182 186/186/186 
f 182/182/182 180/180/180 186/186/186 
f 186/186/186 180/180/180 187/187/187 
f 180/180/180 188/188/188 187/187/187 
f 187/187/187 188/188/188 187/187/187 
f 188/188/188 189/189/189 187/187/187 
f 187/187/187 189/189/189 190/190/190 
f 189/189/189 191/191/191 190/190/190 
f 190/190/190 191/191/191 192/192/192 
f 191/191/191 193/193/193 192/192/192 
f 192/192/192 193/193/193 194/194/194 
f 193/193/193 195/195/195 194/194/194 
f 194/194/194 195/195/195 194/194/194 
f 195/195/195 196/196/196 194/194/194 
f 194/194/194 196/196/196 192/192/192 
f 196/196/196 197/197/197 192/192/192 
f 192/192/192 197/197/197 190/190/190 
f 197/197/197 186/186/186 190/190/190 
f 190/190/190 186/186/186 187/187/187 
f 186/186/186 187/187/187 187/187/187 
f 187/187/187 187/187/187 180/180/180 
f 187/187/187 180/180/180 180/180/180 
f 180/180/180 180/180/180 188/188/188 
f 180/180/180 179/179/179 188/188/188 
f 188/188/188 179/179/179 179/179/179 
f 179/179/179 186/186/186 179/179/179 
f 179/179/179 186/186/186 186/186/186 
f 186/186/186 197/197/197 186/186/186 
f 186/186/186 197/197/197 185/185/185 
f 197/197/197 198/198/198 185/185/185 
f 185/185/185 198/198/198 199/199/199 
f 198/198/198 198/198/198 199/199/199 
f 199/199/199 198/198/198 200/200/200 
f 198/198/198 198/198/198 200/200/200 
f 200/200/200 198/198/198 201/201/201 
f 198/198/198 196/196/196 201/201/201 
f 201/201/201 196/196/196 195/195/195 
f 196/196/196 195/195/195 195/195/195 
f 195/195/195 195/195/195 197/197/197 
f 195/195/195 197/197/197 197/197/197 
f 197/197/197 197/197/197 198/198/198 
f 197/197/197 196/196/196 198/198/198 
f 198/198/198 196/196/196 196/196/196 
f 196/196/196 185/185/185 196/196/196 
f 196/196/196 185/185/185 185/185/185 
f 185/185/185 199/199/199 185/185/185 
f 185/185/185 199/199/199 184/184/184 
f 199/199/199 199/199/199 184/184/184 
f 184/184/184 199/199/199 202/202/202 
f 199/199/199 203/203/203 202/202/202 
f 202/202/202 203/203/203 202/202/202 
f 203/203/203 204/204/204 202/202/202 
f 202/202/202 204/204/204 205/205/205 
f 204/204/204 206/206/206 205/205/205 
f 205/205/205 206/206/206 207/207/207 
f 206/206/206 208/208/208 207/207/207 
f 207/207/207 208/208/208 209/209/209 
f 208/208/208 210/210/210 209/209/209 
f 209/209/209 210/210/210 210/210/210 
f 210/210/210 199/199/199 210/210/210 
f 210/210/210 199/199/199 199/199/199 
f 199/199/199 200/200/200 199/199/199 
f 199/199/199 200/200/200 203/203/203 
f 200/200/200 203/203/203 203/203/203 
f 203/203/203 203/203/203 209/209/209 
f 203/203/203 209/209/209 209/209/209 
f 209/209/209 209/209/209 207/207/207 
f 209/209/209 211/211/211 207/207/207 
f 207/207/207 211/211/211 205/205/205 
f 211/211/211 212/212/212 205/205/205 
f 205/205/205 212/212/212 202/202/202 
f 212/212/212 212/212/212 202/202/202 
f 202/202/202 212/212/212 184/184/184 
f 212/212/212 212/212/212 184/184/184 
f 184/184/184 212/212/212 183/183/183 
f 212/212/212 212/212/212 183/183/183 
f 183/183/183 212/212/212 213/213/213 
f 212/212/212 211/211/211 213/213/213 
f 213/213/213 211/211/211 214/214/214 
f 211/211/211 209/209/209 214/214/214 
f 214/214/214 209/209/209 215/215/215 
f 209/209/209 210/210/210 215/215/215 
f 215/215/215 210/210/210 215/215/215 
f 210/210/210 216/216/216 215/215/215 
f 215/215/215 216/216/216 217/217/217 
f 216/216/216 218/218/218 217/217/217 
f 217/217/217 218/218/218 219/219/219 
f 218/218/218 220/220/220 219/219/219 
f 219/219/219 220/220/220 221/221/221 
f 220/220/220 222/222/222 221/221/221 
f 221/221/221 222/222/222 223/223/223 
f 222/222/222 224/224/224 223/223/223 
f 223/223/223 224/224/224 224/224/224 
f 224/224/224 217/217/217 224/224/224 
f 224/224/224 217/217/217 217/217/217 
f 217/217/217 219/219/219 217/217/217 
f 217/217/217 219/219/219 215/215/215 
f 219/219/219 219/219/219 215/215/215 
f 215/215/215 219/219/219 214/214/214 
f 219/219/219 221/221/221 214/214/214 
f 214/214/214 221/221/221 213/213/213 
f 221/221/221 223/223/223 213/213/213 
f 213/213/213 223/223/223 183/183/183 
f 223/223/223 223/223/223 183/183/183 
f 183/183/183 223/223/223 181/181/181 
f 223/223/223 224/224/224 181/181/181 
f 181/181/181 224/224/224 179/179/179 
f 224/224/224 179/179/179 179/179/179 
f 179/179/179 179/179/179 225/225/225 
f 179/179/179 225/225/225 225/225/225 
f 225/225/225 225/225/225 225/225/225 
f 225/225/225 226/226/226 225/225/225 
f 225/225/225 226/226/226 227/227/227 
f 226/226/226 228/228/228 227/227/227 
f 227/227/227 228/228/228 229/229/229 
f 228/228/228 228/228/228 229/229/229 
f 229/229/229 228/228/228 230/230/230 
f 228/228/228 228/228/228 230/230/230 
f 230/230/230 228/228/228 231/231/231 
f 228/228/228 228/228/228 231/231/231 
f 231/231/231 228/228/228 232/232/232 
f 228/228/228 226/226/226 232/232/232 
f 232/232/232 226/226/226 233/233/233 
f 226/226/226 234/234/234 233/233/233 
f 233/233/233 234/234/234 233/233/233 
f 234/234/234 235/235/235 233/233/233 
f 233/233/233 235/235/235 236/236/236 
f 235/235/235 237/237/237 236/236/236 
f 236/236/236 237/237/237 238/238/238 
f 237/237/237 239/239/239 238/238/238 
f 238/238/238 239/239/239 240/240/240 
f 239/239/239 241/241/241 240/240/240 
f 240/240/240 241/241/241 240/240/240 
f 241/241/241 242/242/242 240/240/240 
f 240/240/240 242/242/242 238/238/238 
f 242/242/242 243/243/243 238/238/238 
f 238/238/238 243/243/243 236/236/236 
f 243/243/243 232/232/232 236/236/236 
f 236/236/236 232/232/232 233/233/233 
f 232/232/232 233/233/233 233/233/233 
f 233/233/233 233/233/233 226/226/226 
f 233/233/233 226/226/226 226/226/226 
f 226/226/226 226/226/226 234/234/234 
f 226/226/226 225/225/225 234/234/234 
f 234/234/234 225/225/225 225/225/225 
f 225/225/225 232/232/232 225/225/225 
f 225/225/225 232/232/232 232/232/232 
f 232/232/232 243/243/243 232/232/232 
f 232/232/232 243/243/243 231/231/231 
f 243/243/243 244/244/244 231/231/231 
f 231/231/231 244/244/244 245/245/245 
f 244/244/244 244/244/244 245/245/245 
f 245/245/245 244/244/244 246/246/246 
f 244/244/244 244/244/244 246/246/246 
f 246/246/246 244/244/244 247/247/247 
f 244/244/244 242/242/242 247/247/247 
f 247/247/247 242/242/242 241/241/241 
f 242/242/242 241/241/241 241/241/241 
f 241/241/241 241/241/241 243/243/243 
f 241/241/241 243/243/243 243/243/243 
f 243/243/243 243/243/243 244/244/244 
f 243/243/243 242/242/242 244/244/244 
f 244/244/244 242/242/242 242/242/242 
f 242/242/242 231/231/231 242/242/242 
f 242/242/242 231/231/231 231/231/231 
f 231/231/231 245/245/245 231/231/231 
f 231/231/231 245/245/245 230/230/230 
f 245/245/245 245/245/245 230/230/230 
f 230/230/230 245/245/245 248/248/248 
f 245/245/245 249/249/249 248/248/248 
f 248/248/248 249/249/249 248/248/248 
f 249/249/249 250/250/250 248/248/248 
f 248/248/248 250/250/250 251/251/251 
f 250/250/250 252/252/252 251/251/251 
f 251/251/251 252/252/252 253/253/253 
f 252/252/252 254/254/254 253/253/253 
f 253/253/253 254/254/254 255/255/255 
f 254/254/254 256/256/256 255/255/255 
f 255/255/255 256/256/256 256/256/256 
f 256/256/256 245/245/245 256/256/256 
f 256/256/256 245/245/245 245/245/245 
f 245/245/245 246/246/246 245/245/245 
f 245/245/245 246/246/246 249/249/249 
f 246/246/246 249/249/249 249/249/249 
f 249/249/249 249/249/249 255/255/255 
f 249/249/249 255/255/255 255/255/255 
f 255/255/255 255/255/255 253/253/253 
f 255/255/255 257/257/257 253/253/253 
f 253/253/253 257/257/257 251/251/251 
f 257/257/257 258/258/258 251/251/251 
f 251/251/251 258/258/258 248/248/248 
f 258/258/258 258/258/258 248/248/248 
f 248/248/248 258/258/258 230/230/230 
f 258/258/258 258/258/258 230/230/230 
f 230/230/230 258/258/258 229/229/229 
f 258/258/258 258/258/258 229/229/229 
f 229/229/229 258/258/258 259/259/259 
f 258/258/258 257/257/257 259/259/259 
f 259/259/259 257/257/257 260/260/260 
f 257/257/257 255/255/255 260/260/260 
f 260/260/260 255/255/255 261/261/261 
f 255/255/255 256/256/256 261/261/261 
f 261/261/261 256/256/256 261/261/261 
f 256/256/256 262/262/262 261/261/261 
f 261/261/261 262/262/262 263/263/263 
f 262/262/262 264/264/264 263/263/263 
f 263/263/263 264/264/264 265/265/265 
f 264/264/264 266/266/266 265/265/265 
f 265/265/265 266/266/266 267/267/267 
f 266/266/266 268/268/268 267/267/267 
f 267/267/267 268/268/268 269/269/269 
f 268/268/268 270/270/270 269/269/269 
f 269/269/269 270/270/270 270/270/270 
f 270/270/270 263/263/263 270/270/270 
f 270/270/270 263/263/263 263/263/263 
f 263/263/263 265/265/265 263/263/263 
f 263/263/263 265/265/265 261/261/261 
f 265/265/265 265/265/265 261/261/261 
f 261/261/261 265/265/265 260/260/260 
f 265/265/265 267/267/267 260/260/260 
f 260/260/260 267/267/267 259/259/259 
f 267/267/267 269/269/269 259/259/259 
f 259/259/259 269/269/269 229/229/229 
f 269/269/269 269/269/269 229/229/229 
f 229/229/229 269/269/269 227/227/227 
f 269/269/269 270/270/270 227/227/227 
f 227/227/227 270/270/270 225/225/225 
f 270/270/270 225/225/225 225/225/225 
f 225/225/225 225/225/225 271/271/271 
f 225/225/225 271/271/271 271/271/271 
f 271/271/271 271/271/271 271/271/271 
f 271/271/271 272/272/272 271/271/271 
f 271/271/271 272/272/272 273/273/273 
f 272/272/272 274/274/274 273/273/273 
f 273/273/273 274/274/274 275/275/275 
f 274/274/274 274/274/274 275/275/275 
f 275/275/275 274/274/274 276/276/276 
f 274/274/274 274/274/274 276/276/276 
f 276/276/276 274/274/274 277/277/277 
f 274/274/274 274/274/274 277/277/277 
f 277/277/277 274/274/274 278/278/278 
f 274/274/274 272/272/272 278/278/278 
f 278/278/278 272/272/272 279/279/279 
f 272/272/272 280/280/280 279/279/279 
f 279/279/279 280/280/280 279/279/279 
f 280/280/280 281/281/281 279/279/279 
f 279/279/279 281/281/281 282/282/282 
f 281/281/281 283/283/283 282/282/282 
f 282/282/282 283/283/283 284/284/284 
f 283/283/283 285/285/285 284/284/284 
f 284/284/284 285/285/285 286/286/286 
f 285/285/285 287/287/287 286/286/286 
f 286/286/286 287/287/287 286/286/286 
f 287/287/287 288/288/288 286/286/286 
f 286/286/286 288/288/288 284/284/284 
f 288/288/288 289/289/289 284/284/284 
f 284/284/284 289/289/289 282/282/282 
f 289/289/289 278/278/278 282/282/282 
f 282/282/282 278/278/278 279/279/279 
f 278/278/278 279/279/279 279/279/279 
f 279/279/279 279/279/279 272/272/272 
f 279/279/279 272/272/272 272/272/272 
f 272/272/272 272/272/272 280/280/280 
f 272/272/272 271/271/271 280/280/280 
f 280/280/280 271/271/271 271/271/271 
f 271/271/271 278/278/278 271/271/271 
f 271/271/271 278/278/278 278/278/278 
f 278/278/278 289/289/289 278/278/278 
f 278/278/278 289/289/289 277/277/277 
f 289/289/289 290/290/290 277/277/277 
f 277/277/277 290/290/290 291/291/291 
f 290/290/290 290/290/290 291/291/291 
f 291/291/291 290/290/290 292/292/292 
f 290/290/290 290/290/290 292/292/292 
f 292/292/292 290/290/290 293/293/293 
f 290/290/290 288/288/288 293/293/293 
f 293/293/293 288/288/288 287/287/287 
f 288/288/288 287/287/287 287/287/287 
f 287/287/287 287/287/287 289/289/289 
f 287/287/287 289/289/289 289/289/289 
f 289/289/289 289/289/289 290/290/290 
f 289/289/289 288/288/288 290/290/290 
f 290/290/290 288/288/288 288/288/288 
f 288/288/288 277/277/277 288/288/288 
f 288/288/288 277/277/277 277/277/277 
f 277/277/277 291/291/291 277/277/277 
f 277/277/277 291/291/291 276/276/276 
f 291/291/291 291/291/291 276/276/276 
f 276/276/276 291/291/291 294/294/294 
f 291/291/291 295/295/295 294/294/294 
f 294/294/294 295/295/295 294/294/294 
f 295/295/295 296/296/296 294/294/294 
f 294/294/294 296/296/296 297/297/297 
f 296/296/296 298/298/298 297/297/297 
f 297/297/297 298/298/298 299/299/299 
f 298/298/298 300/300/300 299/299/299 
f 299/299/299 300/300/300 301/301/301 
f 300/300/300 302/302/302 301/301/301 
f 301/301/301 302/302/302 302/302/302 
f 302/302/302 291/291/291 302/302/302 
f 302/302/302 291/291/291 291/291/291 
f 291/291/291 292/292/292 291/291/291 
f 291/291/291 292/292/292 295/295/295 
f 292/292/292 295/295/295 295/295/295 
f 295/295/295 295/295/295 301/301/301 
f 295/295/295 301/301/301 301/301/301 
f 301/301/301 301/301/301 299/299/299 
f 301/301/301 303/303/303 299/299/299 
f 299/299/299 303/303/303 297/297/297 
f 303/303/303 304/304/304 297/297/297 
f 297/297/297 304/304/304 294/294/294 
f 304/304/304 304/304/304 294/294/294 
f 294/294/294 304/304/304 276/276/276 
f 304/304/304 304/304/304 276/276/276 
f 276/276/276 304/304/304 275/275/275 
f 304/304/304 304/304/304 275/275/275 
f 275/275/275 304/304/304 305/305/305 
f 304/304/304 303/303/303 305/305/305 
f 305/305/305 303/303/303 306/306/306 
f 303/303/303 301/301/301 306/306/306 
f 306/306/306 301/301/301 307/307/307 
f 301/301/301 302/302/302 307/307/307 
f 307/307/307 302/302/302 307/307/307 
f 302/302/302 308/308/308 307/307/307 
f 307/307/307 308/308/308 309/309/309 
f 308/308/308 310/310/310 309/309/309 
f 309/309/309 310/310/310 311/311/311 
f 310/310/310 312/312/312 311/311/311 
f 311/311/311 312/312/312 313/313/313 
f 312/312/312 314/314/314 313/313/313 
f 313/313/313 314/314/314 315/315/315 
f 314/314/314 316/316/316 315/315/315 
f 315/315/315 316/316/316 316/316/316 
f 316/316/316 309/309/309 316/316/316 
f 316/316/316 309/309/309 309/309/309 
f 309/309/309 311/311/311 309/309/309 
f 309/309/309 311/311/311 307/307/307 
f 311/311/311 311/311/311 307/307/307 
f 307/307/307 311/311/311 306/306/306 
f 311/311/311 313/313/313 306/306/306 
f 306/306/306 313/313/313 305/305/305 
f 313/313/313 315/315/315 305/305/305 
f 305/305/305 315/315/315 275/275/275 
f 315/315/315 315/315/315 275/275/275 
f 275/275/275 315/315/315 273/273/273 
f 315/315/315 316/316/316 273/273/273 
f 273/273/273 316/316/316 271/271/271 

