mtllib model_9.mtl
o model_9
v -73.12478637695312 0.7060003280639648 624.8585815429688 
v -73.12478637695312 221.87777709960938 624.8585815429688 
v 39.877685546875 0.7060003280639648 658.6925048828125 
v 39.877689361572266 221.87777709960938 658.6924438476562 
v -72.95464324951172 0.7060003280639648 624.290283203125 
v -73.12478637695312 0.7060003280639648 624.8585815429688 
v 40.04783248901367 0.7060003280639648 658.1242065429688 
v 39.877685546875 0.7060003280639648 658.6925048828125 
v 40.04783248901367 221.87777709960938 658.1242065429688 
v 39.877689361572266 221.87777709960938 658.6924438476562 
v -72.95464324951172 221.87777709960938 624.290283203125 
v -73.12478637695312 221.87777709960938 624.8585815429688 
v -72.95464324951172 221.87777709960938 624.290283203125 
v -73.12478637695312 221.87777709960938 624.8585815429688 
v -72.95464324951172 0.7060003280639648 624.290283203125 
v -73.12478637695312 0.7060003280639648 624.8585815429688 
v -78.82051086425781 -12.457990646362305 -80.85985565185547 
v -78.82052612304688 223.2393341064453 -80.85985565185547 
v -78.82054901123047 -12.457990646362305 -533.7210083007812 
v -78.820556640625 223.2393341064453 -533.7210083007812 
v -78.8205337524414 379.7564392089844 -80.85985565185547 
v -78.82056427001953 379.7564392089844 -533.7210083007812 
v -78.82058715820312 223.2393341064453 -917.1290283203125 
v -78.82059478759766 379.7564392089844 -917.1290283203125 
v -78.82046508789062 -12.457990646362305 622.0548095703125 
v -78.82047271728516 223.2393341064453 622.0548095703125 
v -78.82050323486328 -12.457990646362305 51.606327056884766 
v -78.82051849365234 223.2393341064453 51.606327056884766 
v -78.82048034667969 379.7564392089844 622.0548095703125 
v -78.82051849365234 379.7564392089844 51.606327056884766 
v -78.8205337524414 379.7564392089844 -80.85985565185547 
v -78.82052612304688 223.2393341064453 -80.85985565185547 
v -78.8204574584961 223.2393341064453 762.793212890625 
v -78.82046508789062 379.7564392089844 762.793212890625 
v -78.82044982910156 223.2393341064453 902.0325927734375 
v -78.8204574584961 379.7564392089844 902.0325927734375 
v -78.82044982910156 -10.866022109985352 762.793212890625 
v -78.82044219970703 -10.866022109985352 902.0325927734375 
v -78.82054901123047 -12.457990646362305 -533.7210083007812 
v -78.8205795288086 -12.457990646362305 -917.1290283203125 
v -78.820556640625 223.2393341064453 -533.7210083007812 
v -78.82058715820312 223.2393341064453 -917.1290283203125 
v -78.62056732177734 379.7564392089844 -533.7210083007812 
v -78.62055969238281 223.2393341064453 -533.7210083007812 
v -78.62052917480469 379.7564392089844 -80.85985565185547 
v -78.62052154541016 223.2393341064453 -80.85985565185547 
v -78.62055206298828 -12.457990646362305 -533.7210083007812 
v -78.62051391601562 -12.457990646362305 -80.85985565185547 
v -78.62057495117188 -12.457990646362305 -917.1290283203125 
v -78.62059020996094 223.2393341064453 -917.1290283203125 
v -78.62059783935547 379.7564392089844 -917.1290283203125 
v -78.62056732177734 379.7564392089844 -533.7210083007812 
v -78.62059020996094 223.2393341064453 -917.1290283203125 
v -78.62055969238281 223.2393341064453 -533.7210083007812 
v -78.6204605102539 -12.457990646362305 622.0548095703125 
v -78.6205062866211 -12.457990646362305 51.606327056884766 
v -78.62046813964844 223.2393341064453 622.0548095703125 
v -78.62051391601562 223.2393341064453 51.606327056884766 
v -78.62047576904297 379.7564392089844 622.0548095703125 
v -78.62052154541016 379.7564392089844 51.606327056884766 
v -78.62052917480469 379.7564392089844 -80.85985565185547 
v -78.62052154541016 223.2393341064453 -80.85985565185547 
v -78.6204605102539 223.2393341064453 762.793212890625 
v -78.62046813964844 379.7564392089844 762.793212890625 
v -78.62045288085938 223.2393341064453 902.0325927734375 
v -78.6204605102539 379.7564392089844 902.0325927734375 
v -78.62045288085938 -10.866022109985352 762.793212890625 
v -78.62043762207031 -10.866022109985352 902.0325927734375 
v -78.62057495117188 -12.457990646362305 -917.1290283203125 
v -78.8205795288086 -12.457990646362305 -917.1290283203125 
v -78.62059020996094 223.2393341064453 -917.1290283203125 
v -78.82058715820312 223.2393341064453 -917.1290283203125 
v -78.62059783935547 379.7564392089844 -917.1290283203125 
v -78.82059478759766 379.7564392089844 -917.1290283203125 
v -78.82056427001953 379.7564392089844 -533.7210083007812 
v -78.62056732177734 379.7564392089844 -533.7210083007812 
v -78.82059478759766 379.7564392089844 -917.1290283203125 
v -78.62059783935547 379.7564392089844 -917.1290283203125 
v -78.8205795288086 -12.457990646362305 -917.1290283203125 
v -78.62057495117188 -12.457990646362305 -917.1290283203125 
v -78.82054901123047 -12.457990646362305 -533.7210083007812 
v -78.62055206298828 -12.457990646362305 -533.7210083007812 
v -78.82051849365234 223.2393341064453 51.606327056884766 
v -78.62051391601562 223.2393341064453 51.606327056884766 
v -78.82050323486328 -12.457990646362305 51.606327056884766 
v -78.6205062866211 -12.457990646362305 51.606327056884766 
v -78.82046508789062 -12.457990646362305 622.0548095703125 
v -78.6204605102539 -12.457990646362305 622.0548095703125 
v -78.82047271728516 223.2393341064453 622.0548095703125 
v -78.62046813964844 223.2393341064453 622.0548095703125 
v -78.82051849365234 379.7564392089844 51.606327056884766 
v -78.62052154541016 379.7564392089844 51.606327056884766 
v -78.8205337524414 379.7564392089844 -80.85985565185547 
v -78.62052917480469 379.7564392089844 -80.85985565185547 
v -78.82051086425781 -12.457990646362305 -80.85985565185547 
v -78.62051391601562 -12.457990646362305 -80.85985565185547 
v -78.82052612304688 223.2393341064453 -80.85985565185547 
v -78.62052154541016 223.2393341064453 -80.85985565185547 
v -78.82050323486328 -12.457990646362305 51.606327056884766 
v -78.6205062866211 -12.457990646362305 51.606327056884766 
v -78.82046508789062 -12.457990646362305 622.0548095703125 
v -78.6204605102539 -12.457990646362305 622.0548095703125 
v -78.82048034667969 379.7564392089844 622.0548095703125 
v -78.62047576904297 379.7564392089844 622.0548095703125 
v -78.82051849365234 379.7564392089844 51.606327056884766 
v -78.62052154541016 379.7564392089844 51.606327056884766 
v -78.82054901123047 -12.457990646362305 -533.7210083007812 
v -78.62055206298828 -12.457990646362305 -533.7210083007812 
v -78.82051086425781 -12.457990646362305 -80.85985565185547 
v -78.62051391601562 -12.457990646362305 -80.85985565185547 
v -78.8205337524414 379.7564392089844 -80.85985565185547 
v -78.62052917480469 379.7564392089844 -80.85985565185547 
v -78.82056427001953 379.7564392089844 -533.7210083007812 
v -78.62056732177734 379.7564392089844 -533.7210083007812 
v -78.82052612304688 223.2393341064453 -80.85985565185547 
v -78.62052154541016 223.2393341064453 -80.85985565185547 
v -78.82051849365234 223.2393341064453 51.606327056884766 
v -78.62051391601562 223.2393341064453 51.606327056884766 
v -78.62047576904297 379.7564392089844 622.0548095703125 
v -78.82048034667969 379.7564392089844 622.0548095703125 
v -78.62046813964844 379.7564392089844 762.793212890625 
v -78.82046508789062 379.7564392089844 762.793212890625 
v -78.6204605102539 379.7564392089844 902.0325927734375 
v -78.8204574584961 379.7564392089844 902.0325927734375 
v -78.82047271728516 223.2393341064453 622.0548095703125 
v -78.62046813964844 223.2393341064453 622.0548095703125 
v -78.8204574584961 223.2393341064453 762.793212890625 
v -78.6204605102539 223.2393341064453 762.793212890625 
v -78.6204605102539 379.7564392089844 902.0325927734375 
v -78.8204574584961 379.7564392089844 902.0325927734375 
v -78.62045288085938 223.2393341064453 902.0325927734375 
v -78.82044982910156 223.2393341064453 902.0325927734375 
v -78.62043762207031 -10.866022109985352 902.0325927734375 
v -78.82044219970703 -10.866022109985352 902.0325927734375 
v -78.82044982910156 -10.866022109985352 762.793212890625 
v -78.62045288085938 -10.866022109985352 762.793212890625 
v -78.82044219970703 -10.866022109985352 902.0325927734375 
v -78.62043762207031 -10.866022109985352 902.0325927734375 
v -78.8204574584961 223.2393341064453 762.793212890625 
v -78.6204605102539 223.2393341064453 762.793212890625 
v -78.82044982910156 -10.866022109985352 762.793212890625 
v -78.62045288085938 -10.866022109985352 762.793212890625 
v -396.5495910644531 204.70730590820312 -915.7472534179688 
v -305.8220520019531 204.70730590820312 -915.7472534179688 
v -396.5495910644531 2.0750010013580322 -915.7472534179688 
v -305.8220520019531 2.0750010013580322 -915.7472534179688 
v -213.65435791015625 2.0750010013580322 -916.3404541015625 
v -213.65435791015625 204.70730590820312 -916.3404541015625 
v -304.3819274902344 2.0750010013580322 -916.3404541015625 
v -304.3819274902344 204.70730590820312 -916.3404541015625 
v -305.8220520019531 2.0750010013580322 -916.3404541015625 
v -305.8220520019531 204.70730590820312 -916.3404541015625 
v -396.5495910644531 2.0750010013580322 -916.3404541015625 
v -396.5495910644531 204.70730590820312 -916.3404541015625 
v -304.3819274902344 204.70730590820312 -915.7472534179688 
v -213.65435791015625 204.70730590820312 -915.7472534179688 
v -304.3819274902344 2.0750010013580322 -915.7472534179688 
v -213.65435791015625 2.0750010013580322 -915.7472534179688 
v -213.65435791015625 2.0750010013580322 -915.7472534179688 
v -213.65435791015625 2.0750010013580322 -916.3404541015625 
v -304.3819274902344 2.0750010013580322 -915.7472534179688 
v -304.3819274902344 2.0750010013580322 -916.3404541015625 
v -396.5495910644531 2.0750010013580322 -915.7472534179688 
v -396.5495910644531 2.0750010013580322 -916.3404541015625 
v -396.5495910644531 204.70730590820312 -915.7472534179688 
v -396.5495910644531 204.70730590820312 -916.3404541015625 
v -396.5495910644531 204.70730590820312 -915.7472534179688 
v -396.5495910644531 204.70730590820312 -916.3404541015625 
v -305.8220520019531 204.70730590820312 -915.7472534179688 
v -305.8220520019531 204.70730590820312 -916.3404541015625 
v -304.3819274902344 204.70730590820312 -915.7472534179688 
v -304.3819274902344 204.70730590820312 -916.3404541015625 
v -213.65435791015625 204.70730590820312 -915.7472534179688 
v -213.65435791015625 204.70730590820312 -916.3404541015625 
v -305.8220520019531 204.70730590820312 -915.7472534179688 
v -305.8220520019531 204.70730590820312 -916.3404541015625 
v -305.8220520019531 2.0750010013580322 -915.7472534179688 
v -305.8220520019531 2.0750010013580322 -916.3404541015625 
v -304.3819274902344 2.0750010013580322 -915.7472534179688 
v -304.3819274902344 2.0750010013580322 -916.3404541015625 
v -304.3819274902344 204.70730590820312 -915.7472534179688 
v -304.3819274902344 204.70730590820312 -916.3404541015625 
v -305.8220520019531 2.0750010013580322 -915.7472534179688 
v -305.8220520019531 2.0750010013580322 -916.3404541015625 
v -396.5495910644531 2.0750010013580322 -915.7472534179688 
v -396.5495910644531 2.0750010013580322 -916.3404541015625 
v -213.65435791015625 204.70730590820312 -915.7472534179688 
v -213.65435791015625 204.70730590820312 -916.3404541015625 
v -213.65435791015625 2.0750010013580322 -915.7472534179688 
v -213.65435791015625 2.0750010013580322 -916.3404541015625 
v -873.4210205078125 95.15706634521484 752.1840209960938 
v -873.4210205078125 362.306640625 752.1839599609375 
v -873.4210205078125 95.15703582763672 564.478515625 
v -873.4210205078125 362.3066101074219 564.478515625 
v -873.4210205078125 95.15701293945312 443.02203369140625 
v -873.4210205078125 362.30657958984375 443.02197265625 
v -873.4210205078125 95.156982421875 266.3580322265625 
v -873.4210205078125 362.3065490722656 266.35797119140625 
v -873.4210205078125 95.15696716308594 144.9015350341797 
v -873.4210205078125 362.3065490722656 144.9014892578125 
v -873.4210205078125 95.15693664550781 -42.80396270751953 
v -873.4210205078125 362.3065185546875 -42.80400466918945 
v -873.4210205078125 95.15691375732422 -164.26048278808594 
v -873.4210205078125 362.3064880371094 -164.26052856445312 
v -873.4210205078125 95.1568832397461 -340.9244689941406 
v -873.4210205078125 362.30645751953125 -340.92449951171875 
v -873.4210205078125 95.15686798095703 -462.3809814453125 
v -873.4210205078125 362.30645751953125 -462.38104248046875 
v -873.4210205078125 95.1568374633789 -650.0864868164062 
v -873.4210205078125 362.3064270019531 -650.0865478515625 
v 556.92919921875 362.3066101074219 564.478515625 
v 556.92919921875 362.306640625 752.1839599609375 
v 556.92919921875 95.15703582763672 564.478515625 
v 556.92919921875 95.15706634521484 752.1840209960938 
v 556.92919921875 362.3065490722656 266.35797119140625 
v 556.92919921875 362.30657958984375 443.02197265625 
v 556.92919921875 95.156982421875 266.3580322265625 
v 556.92919921875 95.15701293945312 443.02203369140625 
v 556.92919921875 362.3065185546875 -42.80400466918945 
v 556.92919921875 362.3065490722656 144.9014892578125 
v 556.92919921875 95.15693664550781 -42.80396270751953 
v 556.92919921875 95.15696716308594 144.9015350341797 
v 556.92919921875 362.30645751953125 -340.92449951171875 
v 556.92919921875 362.3064880371094 -164.26052856445312 
v 556.92919921875 95.1568832397461 -340.9244689941406 
v 556.92919921875 95.15691375732422 -164.26048278808594 
v 556.92919921875 362.3064270019531 -650.0865478515625 
v 556.92919921875 362.30645751953125 -462.38104248046875 
v 556.92919921875 95.1568374633789 -650.0864868164062 
v 556.92919921875 95.15686798095703 -462.3809814453125 
v -76.29427337646484 0.7060003280639648 -80.47230529785156 
v -76.29426574707031 221.87777709960938 -80.4723129272461 
v -9.657774925231934 0.7060003280639648 16.861454010009766 
v -9.657767295837402 221.87777709960938 16.861448287963867 
v -75.80479431152344 0.7060003280639648 -80.80741119384766 
v -76.29427337646484 0.7060003280639648 -80.47230529785156 
v -9.16829776763916 0.7060003280639648 16.526348114013672 
v -9.657774925231934 0.7060003280639648 16.861454010009766 
v -9.168290138244629 221.87777709960938 16.526342391967773 
v -9.657767295837402 221.87777709960938 16.861448287963867 
v -75.8047866821289 221.87777709960938 -80.80741882324219 
v -76.29426574707031 221.87777709960938 -80.4723129272461 
v -75.8047866821289 221.87777709960938 -80.80741882324219 
v -76.29426574707031 221.87777709960938 -80.4723129272461 
v -75.80479431152344 0.7060003280639648 -80.80741119384766 
v -76.29427337646484 0.7060003280639648 -80.47230529785156 
vn 0.0028682805132120848 -4.3711381736422084e-10 -0.009579821489751339 
vn 0.0028682805132120848 -4.3711381736422084e-10 -0.009579821489751339 
vn 0.0028682805132120848 -4.3711381736422084e-10 -0.009579821489751339 
vn 0.0028682805132120848 -4.3711381736422084e-10 -0.009579821489751339 
vn 0.00000626644123258302 0.009999976493418217 -0.000020929399397573434 
vn 0.00000626644123258302 0.009999976493418217 -0.000020929399397573434 
vn 0.00000626644123258302 0.009999976493418217 -0.000020929399397573434 
vn 0.00000626644123258302 0.009999976493418217 -0.000020929399397573434 
vn 0.0000062661902120453306 -0.009999976493418217 -0.000020928562662447803 
vn 0.0000062661902120453306 -0.009999976493418217 -0.000020928562662447803 
vn 0.0000062661902120453306 -0.009999976493418217 -0.000020928562662447803 
vn 0.0000062661902120453306 -0.009999976493418217 -0.000020928562662447803 
vn 0.009586065076291561 -9.575728881702772e-13 0.0028473446145653725 
vn 0.009586065076291561 -9.575728881702772e-13 0.0028473446145653725 
vn 0.009586065076291561 -9.575728881702772e-13 0.0028473446145653725 
vn 0.009586065076291561 -9.575728881702772e-13 0.0028473446145653725 
vn -0.009999999776482582 -4.3711401165325015e-10 7.549790237426635e-10 
vn -0.009999999776482582 -4.3711401165325015e-10 7.549790237426635e-10 
vn -0.009999999776482582 -4.3711401165325015e-10 7.549790237426635e-10 
vn -0.009999999776482582 -4.3711401165325015e-10 7.549790237426635e-10 
vn -0.009999999776482582 -4.3711401165325015e-10 7.549790237426635e-10 
vn -0.009999999776482582 -4.3711401165325015e-10 7.549790237426635e-10 
vn -0.009999999776482582 -4.3711401165325015e-10 7.549790237426635e-10 
vn -0.009999999776482582 -4.3711401165325015e-10 7.549790237426635e-10 
vn -0.009999999776482582 -4.3711401165325015e-10 7.549790237426635e-10 
vn -0.009999999776482582 -4.3711401165325015e-10 7.549790237426635e-10 
vn -0.009999999776482582 -4.3711401165325015e-10 7.549790237426635e-10 
vn -0.009999999776482582 -4.3711401165325015e-10 7.549790237426635e-10 
vn -0.009999999776482582 -4.3711401165325015e-10 7.549790237426635e-10 
vn -0.009999999776482582 -4.3711401165325015e-10 7.549790237426635e-10 
vn -0.009999999776482582 -4.3711401165325015e-10 7.549790237426635e-10 
vn -0.009999999776482582 -4.3711401165325015e-10 7.549790237426635e-10 
vn -0.009999999776482582 -4.3711401165325015e-10 7.549790237426635e-10 
vn -0.009999999776482582 -4.3711401165325015e-10 7.549790237426635e-10 
vn -0.009999999776482582 -4.3711401165325015e-10 7.549790237426635e-10 
vn -0.009999999776482582 -4.3711401165325015e-10 7.549790237426635e-10 
vn -0.009999999776482582 -4.3711401165325015e-10 7.549790237426635e-10 
vn -0.009999999776482582 -4.3711401165325015e-10 7.549790237426635e-10 
vn -0.009999999776482582 -4.3711401165325015e-10 7.549790237426635e-10 
vn -0.009999999776482582 -4.3711401165325015e-10 7.549790237426635e-10 
vn -0.009999999776482582 -4.3711401165325015e-10 7.549790237426635e-10 
vn -0.009999999776482582 -4.3711401165325015e-10 7.549790237426635e-10 
vn 0.009999999776482582 4.3711401165325015e-10 -7.54981077655259e-10 
vn 0.009999999776482582 4.3711401165325015e-10 -7.54981077655259e-10 
vn 0.009999999776482582 4.3711401165325015e-10 -7.54981077655259e-10 
vn 0.009999999776482582 4.3711401165325015e-10 -7.54981077655259e-10 
vn 0.009999999776482582 4.3711401165325015e-10 -7.54981077655259e-10 
vn 0.009999999776482582 4.3711401165325015e-10 -7.54981077655259e-10 
vn 0.009999999776482582 4.3711401165325015e-10 -7.54981077655259e-10 
vn 0.009999999776482582 4.3711401165325015e-10 -7.54981077655259e-10 
vn 0.009999999776482582 4.3711401165325015e-10 -7.549769143189167e-10 
vn 0.009999999776482582 4.3711401165325015e-10 -7.549769143189167e-10 
vn 0.009999999776482582 4.3711401165325015e-10 -7.549769143189167e-10 
vn 0.009999999776482582 4.3711401165325015e-10 -7.549769143189167e-10 
vn 0.009999999776482582 4.3711401165325015e-10 -7.54981077655259e-10 
vn 0.009999999776482582 4.3711401165325015e-10 -7.54981077655259e-10 
vn 0.009999999776482582 4.3711401165325015e-10 -7.54981077655259e-10 
vn 0.009999999776482582 4.3711401165325015e-10 -7.54981077655259e-10 
vn 0.009999999776482582 4.3711401165325015e-10 -7.54981077655259e-10 
vn 0.009999999776482582 4.3711401165325015e-10 -7.54981077655259e-10 
vn 0.009999999776482582 4.3711401165325015e-10 -7.54981077655259e-10 
vn 0.009999999776482582 4.3711401165325015e-10 -7.54981077655259e-10 
vn 0.009999999776482582 4.3711401165325015e-10 -7.54981077655259e-10 
vn 0.009999999776482582 4.3711401165325015e-10 -7.54981077655259e-10 
vn 0.009999999776482582 4.3711401165325015e-10 -7.54981077655259e-10 
vn 0.009999999776482582 4.3711401165325015e-10 -7.54981077655259e-10 
vn 0.009999999776482582 4.3711401165325015e-10 -7.54981077655259e-10 
vn 0.009999999776482582 4.3711401165325015e-10 -7.54981077655259e-10 
vn -0.00002184769618907012 -9.570286186796895e-13 -0.009999976493418217 
vn -0.00002184769618907012 -9.570286186796895e-13 -0.009999976493418217 
vn -0.00002184769618907012 -9.570286186796895e-13 -0.009999976493418217 
vn -0.00002184769618907012 -9.570286186796895e-13 -0.009999976493418217 
vn -0.00002184769618907012 -9.570286186796895e-13 -0.009999976493418217 
vn -0.00002184769618907012 -9.570286186796895e-13 -0.009999976493418217 
vn -0.000021847379684913903 0.009999976493418217 1.6483971305991663e-12 
vn -0.000021847379684913903 0.009999976493418217 1.6483971305991663e-12 
vn -0.000021847379684913903 0.009999976493418217 1.6483971305991663e-12 
vn -0.000021847379684913903 0.009999976493418217 1.6483971305991663e-12 
vn -0.000021846504751010798 -0.009999976493418217 1.6524631055864214e-12 
vn -0.000021846504751010798 -0.009999976493418217 1.6524631055864214e-12 
vn -0.000021846504751010798 -0.009999976493418217 1.6524631055864214e-12 
vn -0.000021846504751010798 -0.009999976493418217 1.6524631055864214e-12 
vn -0.00002184769618907012 -9.570286186796895e-13 -0.009999976493418217 
vn -0.00002184769618907012 -9.570286186796895e-13 -0.009999976493418217 
vn -0.00002184769618907012 -9.570286186796895e-13 -0.009999976493418217 
vn -0.00002184769618907012 -9.570286186796895e-13 -0.009999976493418217 
vn -0.000021846186427865177 -9.549603946154561e-13 0.009999976493418217 
vn -0.000021846186427865177 -9.549603946154561e-13 0.009999976493418217 
vn -0.000021846186427865177 -9.549603946154561e-13 0.009999976493418217 
vn -0.000021846186427865177 -9.549603946154561e-13 0.009999976493418217 
vn -0.000021847379684913903 0.009999976493418217 1.6483971305991663e-12 
vn -0.000021847379684913903 0.009999976493418217 1.6483971305991663e-12 
vn -0.000021847379684913903 0.009999976493418217 1.6483971305991663e-12 
vn -0.000021847379684913903 0.009999976493418217 1.6483971305991663e-12 
vn -0.000021846186427865177 -9.549603946154561e-13 0.009999976493418217 
vn -0.000021846186427865177 -9.549603946154561e-13 0.009999976493418217 
vn -0.000021846186427865177 -9.549603946154561e-13 0.009999976493418217 
vn -0.000021846186427865177 -9.549603946154561e-13 0.009999976493418217 
vn -0.000021846504751010798 -0.009999976493418217 1.6524631055864214e-12 
vn -0.000021846504751010798 -0.009999976493418217 1.6524631055864214e-12 
vn -0.000021846504751010798 -0.009999976493418217 1.6524631055864214e-12 
vn -0.000021846504751010798 -0.009999976493418217 1.6524631055864214e-12 
vn -0.000021847379684913903 0.009999976493418217 1.6483971305991663e-12 
vn -0.000021847379684913903 0.009999976493418217 1.6483971305991663e-12 
vn -0.000021847379684913903 0.009999976493418217 1.6483971305991663e-12 
vn -0.000021847379684913903 0.009999976493418217 1.6483971305991663e-12 
vn -0.000021846504751010798 -0.009999976493418217 1.6524631055864214e-12 
vn -0.000021846504751010798 -0.009999976493418217 1.6524631055864214e-12 
vn -0.000021846504751010798 -0.009999976493418217 1.6524631055864214e-12 
vn -0.000021846504751010798 -0.009999976493418217 1.6524631055864214e-12 
vn -0.000021847379684913903 0.009999976493418217 1.6483971305991663e-12 
vn -0.000021847379684913903 0.009999976493418217 1.6483971305991663e-12 
vn -0.000021847379684913903 0.009999976493418217 1.6483971305991663e-12 
vn -0.000021847379684913903 0.009999976493418217 1.6483971305991663e-12 
vn -0.000021846504751010798 -0.009999976493418217 1.6524631055864214e-12 
vn -0.000021846504751010798 -0.009999976493418217 1.6524631055864214e-12 
vn -0.000021846504751010798 -0.009999976493418217 1.6524631055864214e-12 
vn -0.000021846504751010798 -0.009999976493418217 1.6524631055864214e-12 
vn -0.000021847379684913903 0.009999976493418217 1.6483971305991663e-12 
vn -0.000021847379684913903 0.009999976493418217 1.6483971305991663e-12 
vn -0.000021847379684913903 0.009999976493418217 1.6483971305991663e-12 
vn -0.000021847379684913903 0.009999976493418217 1.6483971305991663e-12 
vn -0.000021847379684913903 0.009999976493418217 1.6483971305991663e-12 
vn -0.000021847379684913903 0.009999976493418217 1.6483971305991663e-12 
vn -0.000021846504751010798 -0.009999976493418217 1.6524631055864214e-12 
vn -0.000021846504751010798 -0.009999976493418217 1.6524631055864214e-12 
vn -0.000021846504751010798 -0.009999976493418217 1.6524631055864214e-12 
vn -0.000021846504751010798 -0.009999976493418217 1.6524631055864214e-12 
vn -0.000021846186427865177 -9.549603946154561e-13 0.009999976493418217 
vn -0.000021846186427865177 -9.549603946154561e-13 0.009999976493418217 
vn -0.000021846186427865177 -9.549603946154561e-13 0.009999976493418217 
vn -0.000021846186427865177 -9.549603946154561e-13 0.009999976493418217 
vn -0.000021846186427865177 -9.549603946154561e-13 0.009999976493418217 
vn -0.000021846186427865177 -9.549603946154561e-13 0.009999976493418217 
vn -0.000021846504751010798 -0.009999976493418217 1.6524631055864214e-12 
vn -0.000021846504751010798 -0.009999976493418217 1.6524631055864214e-12 
vn -0.000021846504751010798 -0.009999976493418217 1.6524631055864214e-12 
vn -0.000021846504751010798 -0.009999976493418217 1.6524631055864214e-12 
vn -0.00002184769618907012 -9.570286186796895e-13 -0.009999976493418217 
vn -0.00002184769618907012 -9.570286186796895e-13 -0.009999976493418217 
vn -0.00002184769618907012 -9.570286186796895e-13 -0.009999976493418217 
vn -0.00002184769618907012 -9.570286186796895e-13 -0.009999976493418217 
vn -2.068231052255163e-15 4.3711401165325015e-10 -0.009999999776482582 
vn -2.068231052255163e-15 4.3711401165325015e-10 -0.009999999776482582 
vn -2.068231052255163e-15 4.3711401165325015e-10 -0.009999999776482582 
vn -2.068231052255163e-15 4.3711401165325015e-10 -0.009999999776482582 
vn 0 -4.3711401165325015e-10 0.009999999776482582 
vn 0 -4.3711401165325015e-10 0.009999999776482582 
vn 0 -4.3711401165325015e-10 0.009999999776482582 
vn 0 -4.3711401165325015e-10 0.009999999776482582 
vn 0 -4.3711401165325015e-10 0.009999999776482582 
vn 0 -4.3711401165325015e-10 0.009999999776482582 
vn 0 -4.3711401165325015e-10 0.009999999776482582 
vn 0 -4.3711401165325015e-10 0.009999999776482582 
vn -2.068231052255163e-15 4.3711401165325015e-10 -0.009999999776482582 
vn -2.068231052255163e-15 4.3711401165325015e-10 -0.009999999776482582 
vn -2.068231052255163e-15 4.3711401165325015e-10 -0.009999999776482582 
vn -2.068231052255163e-15 4.3711401165325015e-10 -0.009999999776482582 
vn -1.0341130909078582e-15 0.009999976493418217 0.000021847379684913903 
vn -1.0341130909078582e-15 0.009999976493418217 0.000021847379684913903 
vn -1.0341130909078582e-15 0.009999976493418217 0.000021847379684913903 
vn -1.0341130909078582e-15 0.009999976493418217 0.000021847379684913903 
vn 0.009999976493418217 -9.549603946154561e-13 0.00002184694130846765 
vn 0.009999976493418217 -9.549603946154561e-13 0.00002184694130846765 
vn 0.009999976493418217 -9.549603946154561e-13 0.00002184694130846765 
vn 0.009999976493418217 -9.549603946154561e-13 0.00002184694130846765 
vn 3.097898490739357e-15 -0.009999976493418217 0.000021846504751010798 
vn 3.097898490739357e-15 -0.009999976493418217 0.000021846504751010798 
vn 3.097898490739357e-15 -0.009999976493418217 0.000021846504751010798 
vn 3.097898490739357e-15 -0.009999976493418217 0.000021846504751010798 
vn 3.097898490739357e-15 -0.009999976493418217 0.000021846504751010798 
vn 3.097898490739357e-15 -0.009999976493418217 0.000021846504751010798 
vn 3.097898490739357e-15 -0.009999976493418217 0.000021846504751010798 
vn 3.097898490739357e-15 -0.009999976493418217 0.000021846504751010798 
vn -0.009999976493418217 -9.570286186796895e-13 0.00002184694130846765 
vn -0.009999976493418217 -9.570286186796895e-13 0.00002184694130846765 
vn -0.009999976493418217 -9.570286186796895e-13 0.00002184694130846765 
vn -0.009999976493418217 -9.570286186796895e-13 0.00002184694130846765 
vn 0.009999976493418217 -9.549603946154561e-13 0.00002184694130846765 
vn 0.009999976493418217 -9.549603946154561e-13 0.00002184694130846765 
vn 0.009999976493418217 -9.549603946154561e-13 0.00002184694130846765 
vn 0.009999976493418217 -9.549603946154561e-13 0.00002184694130846765 
vn -1.0341130909078582e-15 0.009999976493418217 0.000021847379684913903 
vn -1.0341130909078582e-15 0.009999976493418217 0.000021847379684913903 
vn -1.0341130909078582e-15 0.009999976493418217 0.000021847379684913903 
vn -1.0341130909078582e-15 0.009999976493418217 0.000021847379684913903 
vn -0.009999976493418217 -9.570286186796895e-13 0.00002184694130846765 
vn -0.009999976493418217 -9.570286186796895e-13 0.00002184694130846765 
vn -0.009999976493418217 -9.570286186796895e-13 0.00002184694130846765 
vn -0.009999976493418217 -9.570286186796895e-13 0.00002184694130846765 
vn -0.009999976493418217 0.00002184694130846765 -3.557257353264953e-12 
vn -0.009999976493418217 0.00002184694130846765 -3.557257353264953e-12 
vn -0.009999976493418217 0.00002184694130846765 -3.557257353264953e-12 
vn -0.009999976493418217 0.00002184694130846765 -3.557257353264953e-12 
vn -0.009999976493418217 0.00002184694130846765 -3.557257353264953e-12 
vn -0.009999976493418217 0.00002184694130846765 -3.557257353264953e-12 
vn -0.009999976493418217 0.00002184694130846765 -3.557257353264953e-12 
vn -0.009999976493418217 0.00002184694130846765 -3.557257353264953e-12 
vn -0.009999976493418217 0.00002184694130846765 -3.557257353264953e-12 
vn -0.009999976493418217 0.00002184694130846765 -3.557257353264953e-12 
vn -0.009999976493418217 0.00002184694130846765 -3.557257353264953e-12 
vn -0.009999976493418217 0.00002184694130846765 -3.557257353264953e-12 
vn -0.009999976493418217 0.00002184694130846765 -3.557257353264953e-12 
vn -0.009999976493418217 0.00002184694130846765 -3.557257353264953e-12 
vn -0.009999976493418217 0.00002184694130846765 -3.557257353264953e-12 
vn -0.009999976493418217 0.00002184694130846765 -3.557257353264953e-12 
vn -0.009999976493418217 0.00002184694130846765 -3.557257353264953e-12 
vn -0.009999976493418217 0.00002184694130846765 -3.557257353264953e-12 
vn -0.009999976493418217 0.00002184694130846765 -3.557257353264953e-12 
vn -0.009999976493418217 0.00002184694130846765 -3.557257353264953e-12 
vn 0.009999976493418217 0.00002184694130846765 -3.5593255773291865e-12 
vn 0.009999976493418217 0.00002184694130846765 -3.5593255773291865e-12 
vn 0.009999976493418217 0.00002184694130846765 -3.5593255773291865e-12 
vn 0.009999976493418217 0.00002184694130846765 -3.5593255773291865e-12 
vn 0.009999976493418217 0.00002184694130846765 -3.5593255773291865e-12 
vn 0.009999976493418217 0.00002184694130846765 -3.5593255773291865e-12 
vn 0.009999976493418217 0.00002184694130846765 -3.5593255773291865e-12 
vn 0.009999976493418217 0.00002184694130846765 -3.5593255773291865e-12 
vn 0.009999976493418217 0.00002184694130846765 -3.5593255773291865e-12 
vn 0.009999976493418217 0.00002184694130846765 -3.5593255773291865e-12 
vn 0.009999976493418217 0.00002184694130846765 -3.5593255773291865e-12 
vn 0.009999976493418217 0.00002184694130846765 -3.5593255773291865e-12 
vn 0.009999976493418217 0.00002184694130846765 -3.5593255773291865e-12 
vn 0.009999976493418217 0.00002184694130846765 -3.5593255773291865e-12 
vn 0.009999976493418217 0.00002184694130846765 -3.5593255773291865e-12 
vn 0.009999976493418217 0.00002184694130846765 -3.5593255773291865e-12 
vn 0.009999976493418217 0.00002184694130846765 -3.5593255773291865e-12 
vn 0.009999976493418217 0.00002184694130846765 -3.5593255773291865e-12 
vn 0.009999976493418217 0.00002184694130846765 -3.5593255773291865e-12 
vn 0.009999976493418217 0.00002184694130846765 -3.5593255773291865e-12 
vn 0.008251506835222244 -4.37114094919977e-10 -0.005649134516716003 
vn 0.008251506835222244 -4.37114094919977e-10 -0.005649134516716003 
vn 0.008251506835222244 -4.37114094919977e-10 -0.005649134516716003 
vn 0.008251506835222244 -4.37114094919977e-10 -0.005649134516716003 
vn 0.000018027378246188164 0.009999976493418217 -0.000012341877663857304 
vn 0.000018027378246188164 0.009999976493418217 -0.000012341877663857304 
vn 0.000018027378246188164 0.009999976493418217 -0.000012341877663857304 
vn 0.000018027378246188164 0.009999976493418217 -0.000012341877663857304 
vn 0.00001802665792638436 -0.009999976493418217 -0.000012341383808234241 
vn 0.00001802665792638436 -0.009999976493418217 -0.000012341383808234241 
vn 0.00001802665792638436 -0.009999976493418217 -0.000012341383808234241 
vn 0.00001802665792638436 -0.009999976493418217 -0.000012341383808234241 
vn 0.005667148157954216 -9.575595524835556e-13 0.008239145390689373 
vn 0.005667148157954216 -9.575595524835556e-13 0.008239145390689373 
vn 0.005667148157954216 -9.575595524835556e-13 0.008239145390689373 
vn 0.005667148157954216 -9.575595524835556e-13 0.008239145390689373 
s on 
f 1//1 2//2 3//3 
f 2//2 4//4 3//3 
f 3//3 4//4 4//4 
f 4//4 5//5 4//4 
f 4//4 5//5 5//5 
f 5//5 6//6 5//5 
f 5//5 6//6 7//7 
f 6//6 8//8 7//7 
f 7//7 8//8 8//8 
f 8//8 9//9 8//8 
f 8//8 9//9 9//9 
f 9//9 10//10 9//9 
f 9//9 10//10 11//11 
f 10//10 12//12 11//11 
f 11//11 12//12 12//12 
f 12//12 13//13 12//12 
f 12//12 13//13 13//13 
f 13//13 14//14 13//13 
f 13//13 14//14 15//15 
f 14//14 16//16 15//15 
f 15//15 16//16 17//17 
f 16//16 18//18 17//17 
f 17//17 18//18 19//19 
f 18//18 18//18 19//19 
f 19//19 18//18 20//20 
f 18//18 21//21 20//20 
f 20//20 21//21 20//20 
f 21//21 22//22 20//20 
f 20//20 22//22 23//23 
f 22//22 24//24 23//23 
f 23//23 24//24 24//24 
f 24//24 25//25 24//24 
f 24//24 25//25 25//25 
f 25//25 26//26 25//25 
f 25//25 26//26 27//27 
f 26//26 26//26 27//27 
f 27//27 26//26 28//28 
f 26//26 29//29 28//28 
f 28//28 29//29 28//28 
f 29//29 30//30 28//28 
f 28//28 30//30 28//28 
f 30//30 31//31 28//28 
f 28//28 31//31 32//32 
f 31//31 32//32 32//32 
f 32//32 32//32 26//26 
f 32//32 26//26 26//26 
f 26//26 26//26 29//29 
f 26//26 33//33 29//29 
f 29//29 33//33 34//34 
f 33//33 35//35 34//34 
f 34//34 35//35 36//36 
f 35//35 36//36 36//36 
f 36//36 36//36 33//33 
f 36//36 33//33 33//33 
f 33//33 33//33 35//35 
f 33//33 37//37 35//35 
f 35//35 37//37 38//38 
f 37//37 38//38 38//38 
f 38//38 38//38 39//39 
f 38//38 39//39 39//39 
f 39//39 39//39 40//40 
f 39//39 41//41 40//40 
f 40//40 41//41 42//42 
f 41//41 42//42 42//42 
f 42//42 42//42 43//43 
f 42//42 43//43 43//43 
f 43//43 43//43 44//44 
f 43//43 45//45 44//44 
f 44//44 45//45 44//44 
f 45//45 46//46 44//44 
f 44//44 46//46 47//47 
f 46//46 48//48 47//47 
f 47//47 48//48 48//48 
f 48//48 47//47 48//48 
f 48//48 47//47 47//47 
f 47//47 49//49 47//47 
f 47//47 49//49 44//44 
f 49//49 50//50 44//44 
f 44//44 50//50 50//50 
f 50//50 51//51 50//50 
f 50//50 51//51 51//51 
f 51//51 52//52 51//51 
f 51//51 52//52 53//53 
f 52//52 54//54 53//53 
f 53//53 54//54 54//54 
f 54//54 55//55 54//54 
f 54//54 55//55 55//55 
f 55//55 56//56 55//55 
f 55//55 56//56 57//57 
f 56//56 58//58 57//57 
f 57//57 58//58 59//59 
f 58//58 58//58 59//59 
f 59//59 58//58 60//60 
f 58//58 58//58 60//60 
f 60//60 58//58 61//61 
f 58//58 62//62 61//61 
f 61//61 62//62 62//62 
f 62//62 57//57 62//62 
f 62//62 57//57 57//57 
f 57//57 59//59 57//57 
f 57//57 59//59 63//63 
f 59//59 64//64 63//63 
f 63//63 64//64 65//65 
f 64//64 66//66 65//65 
f 65//65 66//66 66//66 
f 66//66 63//63 66//66 
f 66//66 63//63 63//63 
f 63//63 65//65 63//63 
f 63//63 65//65 67//67 
f 65//65 68//68 67//67 
f 67//67 68//68 68//68 
f 68//68 69//69 68//68 
f 68//68 69//69 69//69 
f 69//69 70//70 69//69 
f 69//69 70//70 71//71 
f 70//70 72//72 71//71 
f 71//71 72//72 73//73 
f 72//72 74//74 73//73 
f 73//73 74//74 74//74 
f 74//74 75//75 74//74 
f 74//74 75//75 75//75 
f 75//75 76//76 75//75 
f 75//75 76//76 77//77 
f 76//76 78//78 77//77 
f 77//77 78//78 78//78 
f 78//78 79//79 78//78 
f 78//78 79//79 79//79 
f 79//79 80//80 79//79 
f 79//79 80//80 81//81 
f 80//80 82//82 81//81 
f 81//81 82//82 82//82 
f 82//82 83//83 82//82 
f 82//82 83//83 83//83 
f 83//83 84//84 83//83 
f 83//83 84//84 85//85 
f 84//84 86//86 85//85 
f 85//85 86//86 86//86 
f 86//86 87//87 86//86 
f 86//86 87//87 87//87 
f 87//87 88//88 87//87 
f 87//87 88//88 89//89 
f 88//88 90//90 89//89 
f 89//89 90//90 90//90 
f 90//90 91//91 90//90 
f 90//90 91//91 91//91 
f 91//91 92//92 91//91 
f 91//91 92//92 93//93 
f 92//92 94//94 93//93 
f 93//93 94//94 94//94 
f 94//94 95//95 94//94 
f 94//94 95//95 95//95 
f 95//95 96//96 95//95 
f 95//95 96//96 97//97 
f 96//96 98//98 97//97 
f 97//97 98//98 98//98 
f 98//98 99//99 98//98 
f 98//98 99//99 99//99 
f 99//99 100//100 99//99 
f 99//99 100//100 101//101 
f 100//100 102//102 101//101 
f 101//101 102//102 102//102 
f 102//102 103//103 102//102 
f 102//102 103//103 103//103 
f 103//103 104//104 103//103 
f 103//103 104//104 105//105 
f 104//104 106//106 105//105 
f 105//105 106//106 106//106 
f 106//106 107//107 106//106 
f 106//106 107//107 107//107 
f 107//107 108//108 107//107 
f 107//107 108//108 109//109 
f 108//108 110//110 109//109 
f 109//109 110//110 110//110 
f 110//110 111//111 110//110 
f 110//110 111//111 111//111 
f 111//111 112//112 111//111 
f 111//111 112//112 113//113 
f 112//112 114//114 113//113 
f 113//113 114//114 114//114 
f 114//114 115//115 114//114 
f 114//114 115//115 115//115 
f 115//115 116//116 115//115 
f 115//115 116//116 117//117 
f 116//116 118//118 117//117 
f 117//117 118//118 118//118 
f 118//118 119//119 118//118 
f 118//118 119//119 119//119 
f 119//119 120//120 119//119 
f 119//119 120//120 121//121 
f 120//120 122//122 121//121 
f 121//121 122//122 123//123 
f 122//122 124//124 123//123 
f 123//123 124//124 124//124 
f 124//124 125//125 124//124 
f 124//124 125//125 125//125 
f 125//125 126//126 125//125 
f 125//125 126//126 127//127 
f 126//126 128//128 127//127 
f 127//127 128//128 128//128 
f 128//128 129//129 128//128 
f 128//128 129//129 129//129 
f 129//129 130//130 129//129 
f 129//129 130//130 131//131 
f 130//130 132//132 131//131 
f 131//131 132//132 133//133 
f 132//132 134//134 133//133 
f 133//133 134//134 134//134 
f 134//134 135//135 134//134 
f 134//134 135//135 135//135 
f 135//135 136//136 135//135 
f 135//135 136//136 137//137 
f 136//136 138//138 137//137 
f 137//137 138//138 138//138 
f 138//138 139//139 138//138 
f 138//138 139//139 139//139 
f 139//139 140//140 139//139 
f 139//139 140//140 141//141 
f 140//140 142//142 141//141 
f 141//141 142//142 143//143 
f 142//142 144//144 143//143 
f 143//143 144//144 145//145 
f 144//144 146//146 145//145 
f 145//145 146//146 146//146 
f 146//146 147//147 146//146 
f 146//146 147//147 147//147 
f 147//147 148//148 147//147 
f 147//147 148//148 149//149 
f 148//148 150//150 149//149 
f 149//149 150//150 150//150 
f 150//150 151//151 150//150 
f 150//150 151//151 151//151 
f 151//151 152//152 151//151 
f 151//151 152//152 153//153 
f 152//152 154//154 153//153 
f 153//153 154//154 154//154 
f 154//154 155//155 154//154 
f 154//154 155//155 155//155 
f 155//155 156//156 155//155 
f 155//155 156//156 157//157 
f 156//156 158//158 157//157 
f 157//157 158//158 158//158 
f 158//158 159//159 158//158 
f 158//158 159//159 159//159 
f 159//159 160//160 159//159 
f 159//159 160//160 161//161 
f 160//160 162//162 161//161 
f 161//161 162//162 162//162 
f 162//162 163//163 162//162 
f 162//162 163//163 163//163 
f 163//163 164//164 163//163 
f 163//163 164//164 165//165 
f 164//164 166//166 165//165 
f 165//165 166//166 166//166 
f 166//166 167//167 166//166 
f 166//166 167//167 167//167 
f 167//167 168//168 167//167 
f 167//167 168//168 169//169 
f 168//168 170//170 169//169 
f 169//169 170//170 170//170 
f 170//170 171//171 170//170 
f 170//170 171//171 171//171 
f 171//171 172//172 171//171 
f 171//171 172//172 173//173 
f 172//172 174//174 173//173 
f 173//173 174//174 174//174 
f 174//174 175//175 174//174 
f 174//174 175//175 175//175 
f 175//175 176//176 175//175 
f 175//175 176//176 177//177 
f 176//176 178//178 177//177 
f 177//177 178//178 178//178 
f 178//178 179//179 178//178 
f 178//178 179//179 179//179 
f 179//179 180//180 179//179 
f 179//179 180//180 181//181 
f 180//180 182//182 181//181 
f 181//181 182//182 182//182 
f 182//182 183//183 182//182 
f 182//182 183//183 183//183 
f 183//183 184//184 183//183 
f 183//183 184//184 185//185 
f 184//184 186//186 185//185 
f 185//185 186//186 186//186 
f 186//186 187//187 186//186 
f 186//186 187//187 187//187 
f 187//187 188//188 187//187 
f 187//187 188//188 189//189 
f 188//188 190//190 189//189 
f 189//189 190//190 191//191 
f 190//190 192//192 191//191 
f 191//191 192//192 193//193 
f 192//192 194//194 193//193 
f 193//193 194//194 194//194 
f 194//194 195//195 194//194 
f 194//194 195//195 195//195 
f 195//195 196//196 195//195 
f 195//195 196//196 197//197 
f 196//196 198//198 197//197 
f 197//197 198//198 198//198 
f 198//198 199//199 198//198 
f 198//198 199//199 199//199 
f 199//199 200//200 199//199 
f 199//199 200//200 201//201 
f 200//200 202//202 201//201 
f 201//201 202//202 202//202 
f 202//202 203//203 202//202 
f 202//202 203//203 203//203 
f 203//203 204//204 203//203 
f 203//203 204//204 205//205 
f 204//204 206//206 205//205 
f 205//205 206//206 206//206 
f 206//206 207//207 206//206 
f 206//206 207//207 207//207 
f 207//207 208//208 207//207 
f 207//207 208//208 209//209 
f 208//208 210//210 209//209 
f 209//209 210//210 210//210 
f 210//210 211//211 210//210 
f 210//210 211//211 211//211 
f 211//211 212//212 211//211 
f 211//211 212//212 213//213 
f 212//212 214//214 213//213 
f 213//213 214//214 214//214 
f 214//214 215//215 214//214 
f 214//214 215//215 215//215 
f 215//215 216//216 215//215 
f 215//215 216//216 217//217 
f 216//216 218//218 217//217 
f 217//217 218//218 218//218 
f 218//218 219//219 218//218 
f 218//218 219//219 219//219 
f 219//219 220//220 219//219 
f 219//219 220//220 221//221 
f 220//220 222//222 221//221 
f 221//221 222//222 222//222 
f 222//222 223//223 222//222 
f 222//222 223//223 223//223 
f 223//223 224//224 223//223 
f 223//223 224//224 225//225 
f 224//224 226//226 225//225 
f 225//225 226//226 226//226 
f 226//226 227//227 226//226 
f 226//226 227//227 227//227 
f 227//227 228//228 227//227 
f 227//227 228//228 229//229 
f 228//228 230//230 229//229 
f 229//229 230//230 231//231 
f 230//230 232//232 231//231 
f 231//231 232//232 233//233 
f 232//232 234//234 233//233 
f 233//233 234//234 234//234 
f 234//234 235//235 234//234 
f 234//234 235//235 235//235 
f 235//235 236//236 235//235 
f 235//235 236//236 237//237 
f 236//236 238//238 237//237 
f 237//237 238//238 238//238 
f 238//238 239//239 238//238 
f 238//238 239//239 239//239 
f 239//239 240//240 239//239 
f 239//239 240//240 241//241 
f 240//240 242//242 241//241 
f 241//241 242//242 242//242 
f 242//242 243//243 242//242 
f 242//242 243//243 243//243 
f 243//243 244//244 243//243 
f 243//243 244//244 245//245 
f 244//244 246//246 245//245 

